<?xml version="1.0" encoding="UTF-8"?>
<svg id="Layer_2" data-name="Layer 2" xmlns="http://www.w3.org/2000/svg" viewBox="0 0 2000 2000">
  <defs>
    <style>
      .cls-1 {
        fill: #fff5db;
      }

      .cls-1, .cls-2, .cls-3, .cls-4 {
        stroke-width: 0px;
      }

      .cls-2 {
        fill: #fff;
      }

      .cls-3 {
        fill: #ffc900;
      }

      .cls-4 {
        fill: #fda700;
      }
    </style>
  </defs>
  <g id="Layer_1-2" data-name="Layer 1">
    <g>
      <rect class="cls-1" x="0" y="0" width="2000" height="2000" rx="296.88" ry="296.88"/>
      <g>
        <g>
          <path class="cls-3" d="m1300.69,474.83l-262.89-151.78c-23.39-13.51-52.21-13.51-75.61,0l-262.88,151.78c-23.39,13.51-37.8,38.47-37.8,65.48v303.56c0,27.01,14.41,51.97,37.8,65.48l262.88,151.78c23.39,13.51,52.22,13.51,75.61,0l262.89-151.78c23.39-13.51,37.8-38.47,37.8-65.48v-303.56c0-27.01-14.41-51.97-37.8-65.48Z"/>
          <path class="cls-2" d="m1096.84,760.83c0-12.14-1.87-22.77-5.6-31.91-3.73-9.14-9.14-17.27-16.21-24.41-7.07-7.14-15.74-13.54-26.01-19.21-10.27-5.67-23.37-11.7-39.31-18.11-15.94-6.4-26.84-12.67-32.71-18.81-5.87-6.14-8.8-14.27-8.8-24.41,0-10.94,3-19.51,9-25.71,6-6.2,14.47-9.3,25.41-9.3s19.91,3.97,26.51,11.9c3.3,3.97,5.78,8.94,7.43,14.93,3.29,11.95,12.97,20.98,25.36,20.98h5.63c17.44,0,29.75-16.98,24.81-33.71-3.33-11.28-8.5-21.21-15.52-29.81-11.86-14.53-27.79-23.9-47.76-28.15v-14.33c0-12.89-10.45-23.34-23.34-23.34s-23.34,10.45-23.34,23.34v13.28c-20.63,3.24-37.44,11.33-50.4,24.29-14.4,14.4-21.61,32.88-21.61,55.42,0,13.07,2.1,24.34,6.3,33.81,4.2,9.47,10.07,17.71,17.61,24.71,7.54,7,16.57,13.2,27.11,18.61,10.54,5.4,23.07,10.84,37.61,16.31,14.54,5.47,24.84,11.44,30.91,17.91,6.07,6.47,9.1,15.17,9.1,26.11s-3.4,18.91-10.2,25.11c-6.8,6.2-16.07,9.3-27.81,9.3-14.14,0-24.97-4.23-32.51-12.7-3.77-4.23-6.59-9.39-8.48-15.48-3.71-11.99-13.5-21.03-26.05-21.03h-4.03c-18.28,0-31.06,18.05-25.43,35.44,3.74,11.58,9.54,21.67,17.38,30.28,14.45,15.86,34.62,25.42,60.5,28.73v12.49c0,12.89,10.45,23.34,23.34,23.34s23.34-10.45,23.34-23.34v-14.06c19.23-3.72,34.76-11.46,46.56-23.26,14.14-14.14,21.21-32.54,21.21-55.22Z"/>
        </g>
        <g>
          <path class="cls-4" d="m1656.22,1090.67l-262.88-151.78c-23.39-13.51-52.22-13.51-75.61,0l-262.88,151.78c-23.39,13.51-37.8,38.47-37.8,65.48v303.56c0,27.01,14.41,51.97,37.8,65.48l262.88,151.78c23.39,13.51,52.22,13.51,75.61,0l262.88-151.78c23.39-13.51,37.8-38.47,37.8-65.48v-303.56c0-27.01-14.41-51.97-37.8-65.48Z"/>
          <path class="cls-2" d="m1462.45,1149.49c-11.08-7.33-25.99-4.29-33.32,6.78l-73.25,110.67-73.97-111.44c-7.35-11.07-22.27-14.08-33.33-6.73-11.06,7.34-14.08,22.26-6.73,33.33l78.03,117.55h-37.24c-13.28,0-24.04,10.76-24.04,24.04s10.76,24.04,24.04,24.04h49.12l-.06,22.8h-49.06c-13.28,0-24.04,10.76-24.04,24.04s10.76,24.04,24.04,24.04h48.94l-.07,28.38c-.04,13.28,10.7,24.07,23.98,24.1h.06c13.25,0,24.01-10.72,24.04-23.98l.07-28.5h48.76c13.28,0,24.04-10.76,24.04-24.04s-10.76-24.04-24.04-24.04h-48.64l.06-22.8h48.58c13.28,0,24.04-10.76,24.04-24.04s-10.76-24.04-24.04-24.04h-36.52l77.33-116.83c7.32-11.07,4.28-25.99-6.79-33.32Z"/>
        </g>
        <path class="cls-4" d="m945.16,1090.67l-262.88-151.78c-23.39-13.51-52.22-13.51-75.61,0l-262.88,151.78c-23.39,13.51-37.8,38.47-37.8,65.48v303.56c0,27.01,14.41,51.97,37.8,65.48l262.88,151.78c23.39,13.51,52.22,13.51,75.61,0l262.88-151.78c23.39-13.51,37.8-38.47,37.8-65.48v-303.56c0-27.01-14.41-51.97-37.8-65.48Z"/>
        <path class="cls-2" d="m787.45,1385.22c-10.4-8.25-25.51-6.51-33.76,3.89-18.67,23.53-43.76,36.5-70.64,36.5-35.96,0-67.42-23.53-84.39-58.46h79c13.27,0,24.03-10.76,24.03-24.03s-10.76-24.03-24.03-24.03h-91.88c-.29-3.68-.45-7.39-.45-11.16s.16-7.48.45-11.16h91.57c13.27,0,24.03-10.76,24.03-24.03s-10.76-24.03-24.03-24.03h-78.69c16.97-34.93,48.43-58.46,84.39-58.46,25.06,0,48.93,11.49,67.2,32.36,8.74,9.99,23.92,11,33.91,2.25,9.99-8.74,10.99-23.92,2.25-33.91-27.53-31.45-64.24-48.77-103.36-48.77-62.04,0-115.14,44.29-136.15,106.52h-30.47c-13.27,0-24.03,10.76-24.03,24.03s10.76,24.03,24.03,24.03h21.18c-.22,3.69-.34,7.41-.34,11.16s.12,7.47.34,11.16h-20.87c-13.27,0-24.03,10.76-24.03,24.03s10.76,24.03,24.03,24.03h30.16c21.01,62.23,74.11,106.52,136.15,106.52,41.24,0,80.71-19.93,108.29-54.69,8.25-10.4,6.51-25.51-3.89-33.76Z"/>
      </g>
    </g>
  </g>
</svg>