<svg width="361" height="36" viewBox="0 0 361 36" fill="none" xmlns="http://www.w3.org/2000/svg">
<rect width="75" height="36" rx="6" fill="#FAFAFA"/>
<path fill-rule="evenodd" clip-rule="evenodd" d="M18.1202 11H14.1533C13.8818 11 13.6509 11.2032 13.6086 11.4792L12.0042 21.9585C11.9723 22.1653 12.1277 22.3517 12.3313 22.3517H14.2252C14.4967 22.3517 14.7275 22.1485 14.7699 21.8719L15.2026 19.0455C15.2443 18.7687 15.4758 18.5658 15.7467 18.5658H17.0025C19.6157 18.5658 21.1237 17.2631 21.5178 14.6817C21.6952 13.5523 21.5253 12.665 21.0118 12.0433C20.4481 11.3611 19.4479 11 18.1202 11ZM18.5779 14.8274C18.361 16.2938 17.2734 16.2938 16.2218 16.2938H15.6231L16.0431 13.5551C16.068 13.3897 16.2072 13.2678 16.3697 13.2678H16.644C17.3604 13.2678 18.0362 13.2678 18.3855 13.6884C18.5935 13.9395 18.6574 14.3122 18.5779 14.8274ZM29.9785 14.7804H28.0788C27.9169 14.7804 27.7771 14.9023 27.7521 15.068L27.6681 15.6152L27.5352 15.417C27.124 14.802 26.207 14.5965 25.2917 14.5965C23.1923 14.5965 21.3994 16.2344 21.0502 18.532C20.8687 19.678 21.1267 20.7738 21.7578 21.5382C22.3368 22.2408 23.1651 22.5337 24.1506 22.5337C25.8419 22.5337 26.7801 21.4132 26.7801 21.4132L26.6953 21.9571C26.6633 22.165 26.8188 22.3514 27.0212 22.3514H28.7324C29.0046 22.3514 29.2341 22.1482 29.2771 21.8717L30.3038 15.1736C30.3363 14.9676 30.1814 14.7804 29.9785 14.7804ZM27.3304 18.5893C27.1471 19.7073 26.2857 20.4578 25.1872 20.4578C24.6356 20.4578 24.1946 20.2755 23.9117 19.9302C23.6309 19.5873 23.524 19.0989 23.6134 18.5553C23.7847 17.4467 24.6606 16.6718 25.7424 16.6718C26.2816 16.6718 26.7203 16.8563 27.0091 17.2047C27.2985 17.5567 27.4133 18.0478 27.3304 18.5893ZM38.1868 14.7801H40.0959C40.3633 14.7801 40.5192 15.089 40.3673 15.3149L34.0181 24.7561C33.9153 24.909 33.7459 25 33.565 25H31.6583C31.3899 25 31.2331 24.6886 31.3885 24.4622L33.3655 21.5874L31.2629 15.2306C31.1902 15.0096 31.3485 14.7801 31.5767 14.7801H33.4525C33.6962 14.7801 33.9113 14.9449 33.9816 15.1852L35.0975 19.0245L37.7305 15.0293C37.8336 14.8733 38.0048 14.7801 38.1868 14.7801Z" fill="#898E90"/>
<path fill-rule="evenodd" clip-rule="evenodd" d="M58.8829 21.959L60.511 11.2881C60.5359 11.1225 60.6752 11.0006 60.8371 11H62.67C62.8724 11 63.0278 11.1869 62.9958 11.3938L61.3903 21.8725C61.3485 22.149 61.1176 22.3523 60.8457 22.3523H59.2088C59.0064 22.3523 58.851 22.1659 58.8829 21.959ZM46.4145 11.0006H42.4469C42.176 11.0006 41.9452 11.2038 41.9027 11.4798L40.2983 21.959C40.2664 22.1659 40.4218 22.3523 40.6245 22.3523H42.6603C42.8495 22.3523 43.0114 22.2101 43.0409 22.0166L43.4962 19.0461C43.538 18.7693 43.7694 18.5663 44.0403 18.5663H45.2954C47.9092 18.5663 49.417 17.2636 49.8113 14.6822C49.9892 13.5529 49.8183 12.6655 49.305 12.0439C48.7416 11.3617 47.7422 11.0006 46.4145 11.0006ZM46.8722 14.828C46.6559 16.2944 45.5682 16.2944 44.5159 16.2944H43.9179L44.3385 13.5557C44.3635 13.3903 44.5014 13.2683 44.6644 13.2683H44.9387C45.6546 13.2683 46.3311 13.2683 46.68 13.6889C46.8883 13.94 46.9517 14.3128 46.8722 14.828ZM58.2717 14.781H56.3733C56.2101 14.781 56.0716 14.9029 56.0472 15.0685L55.9632 15.6158L55.8298 15.4175C55.4185 14.8025 54.5021 14.5971 53.5868 14.5971C51.4874 14.5971 49.695 16.2349 49.3458 18.5326C49.1649 19.6785 49.4218 20.7744 50.0529 21.5387C50.6329 22.2414 51.4602 22.5342 52.4457 22.5342C54.137 22.5342 55.0749 21.4137 55.0749 21.4137L54.9904 21.9577C54.9584 22.1656 55.1139 22.352 55.3176 22.352H57.0281C57.2989 22.352 57.5298 22.1487 57.5722 21.8722L58.5995 15.1742C58.6309 14.9682 58.4754 14.781 58.2717 14.781ZM55.6239 18.5898C55.4416 19.7078 54.5792 20.4583 53.4805 20.4583C52.9299 20.4583 52.4881 20.2761 52.2049 19.9307C51.9241 19.5878 51.8186 19.0995 51.9069 18.5558C52.079 17.4472 52.9538 16.6724 54.0356 16.6724C54.5751 16.6724 55.0135 16.8568 55.3026 17.2053C55.593 17.5573 55.7079 18.0484 55.6239 18.5898Z" fill="#898E90"/>
<rect x="85" width="61.999" height="36" rx="6" fill="#FAFAFA"/>
<path d="M123.083 13.6641C124.93 13.6641 126.672 15.2464 126.683 18.1504C126.682 21.3244 124.962 22.7666 123.072 22.7666C122.144 22.7665 121.584 22.3961 121.204 22.1357L121.193 24.9688L118.555 25.5V13.8242H120.877L121.014 14.4453C121.383 14.1249 122.049 13.6641 123.083 13.6641ZM100.568 13.6641C101.444 13.6641 102.31 13.7936 103.187 14.124V16.4775C102.384 16.067 101.371 15.837 100.568 15.8369C100.009 15.8369 99.6709 15.9874 99.6709 16.3779C99.6719 17.4989 103.692 16.9687 103.703 19.9521C103.703 21.7446 102.194 22.7764 99.998 22.7764C99.0902 22.7764 98.098 22.6056 97.1162 22.2051V19.8223C98.0029 20.2829 99.1219 20.623 99.998 20.623C100.589 20.623 101.012 20.4731 101.012 20.0127C101.012 18.8211 97.0004 19.2614 97 16.498C97 14.7256 98.4254 13.6641 100.568 13.6641ZM106.795 13.834H108.801V15.9668H106.795V19.5225C106.795 21.0039 108.463 20.5433 108.801 20.4131V22.4463C108.452 22.6265 107.819 22.7764 106.953 22.7764C105.391 22.7762 104.22 21.6849 104.22 20.2031L104.23 12.1816L106.806 11.6611L106.795 13.834ZM131.188 13.6641C133.69 13.6642 134.999 15.6866 134.999 18.25C134.999 18.4903 134.978 19.0114 134.978 19.1416H129.815C129.932 20.323 130.84 20.6631 131.864 20.6631C132.909 20.663 133.732 20.4527 134.45 20.1123V22.1152C133.732 22.4957 132.782 22.7666 131.526 22.7666C128.951 22.7666 127.155 21.2443 127.155 18.2305C127.155 15.687 128.676 13.6641 131.188 13.6641ZM117.573 22.5967H114.923V13.835H117.573V22.5967ZM112.085 14.5752C112.708 13.4937 113.942 13.7138 114.28 13.834V16.1367C113.953 16.0266 112.897 15.8864 112.274 16.6572V22.5957H109.636V13.834H111.916L112.085 14.5752ZM122.45 15.8867C121.848 15.8867 121.468 16.0866 121.193 16.377L121.204 20.0928C121.457 20.3531 121.827 20.5635 122.45 20.5635C123.421 20.5634 124.076 19.5615 124.076 18.2197C124.076 16.9081 123.411 15.8868 122.45 15.8867ZM131.177 15.6963C130.512 15.6964 129.783 16.1674 129.783 17.2988H132.507C132.507 16.1673 131.821 15.6963 131.177 15.6963ZM117.573 12.5322L114.923 13.0732V11.0303L117.573 10.5V12.5322Z" fill="#898E90"/>
<rect x="156.999" width="62" height="36" rx="6" fill="#FAFAFA"/>
<path fill-rule="evenodd" clip-rule="evenodd" d="M178.5 23.9091H175.211L172.745 14.5999C172.628 14.1716 172.379 13.7931 172.014 13.6146C171.101 13.1662 170.096 12.8094 168.999 12.6294V12.271H174.297C175.028 12.271 175.577 12.8094 175.668 13.4347L176.948 20.1497L180.235 12.271H183.432L178.5 23.9091ZM185.26 23.9091H182.154L184.712 12.271H187.818L185.26 23.9091ZM191.837 15.4925C191.929 14.8657 192.477 14.5073 193.117 14.5073C194.122 14.4173 195.218 14.5973 196.132 15.0441L196.68 12.5384C195.766 12.18 194.761 12 193.848 12C190.834 12 188.64 13.6121 188.64 15.8494C188.64 17.5514 190.194 18.4451 191.291 18.9835C192.477 19.5203 192.934 19.8787 192.843 20.4156C192.843 21.2208 191.929 21.5792 191.016 21.5792C189.92 21.5792 188.823 21.3108 187.819 20.8624L187.271 23.3697C188.367 23.8166 189.554 23.9965 190.651 23.9965C194.031 24.085 196.132 22.4745 196.132 20.0572C196.132 17.013 191.837 16.8346 191.837 15.4925ZM206.999 23.9091L204.533 12.271H201.884C201.335 12.271 200.787 12.6294 200.604 13.1662L196.037 23.9091H199.235L199.873 22.2086H203.802L204.167 23.9091H206.999ZM202.344 15.4028L203.256 19.789H200.698L202.344 15.4028Z" fill="#898E90"/>
<rect x="228.999" width="50" height="36" rx="6" fill="#FAFAFA"/>
<path d="M259.113 10C263.468 10 266.999 13.5818 266.999 18C266.999 22.418 263.468 26 259.113 26C257.161 25.9999 255.376 25.2781 253.999 24.0859C252.622 25.2783 250.836 26 248.884 26C244.529 25.9997 240.999 22.4179 240.999 18C240.999 13.582 244.529 10.0003 248.884 10C250.836 10 252.622 10.7209 253.999 11.9131C255.376 10.721 257.161 10.0001 259.113 10Z" fill="#898E90"/>
<path opacity="0.5" d="M259.113 10C263.468 10 266.999 13.5818 266.999 18C266.999 22.418 263.468 26 259.113 26C257.161 25.9999 255.376 25.2781 253.999 24.0859C255.694 22.6187 256.769 20.4374 256.77 18C256.77 15.5624 255.694 13.3804 253.999 11.9131C255.376 10.721 257.161 10.0001 259.113 10Z" fill="#B0B5B7"/>
<path d="M253.999 11.9116C255.694 13.3789 256.77 15.5609 256.77 17.9985C256.77 20.4359 255.694 22.6172 253.999 24.0845C252.304 22.6172 251.229 20.436 251.229 17.9985C251.229 15.5608 252.304 13.3789 253.999 11.9116Z" fill="#B0B5B7"/>
<rect x="288.999" width="72" height="36" rx="6" fill="#FAFAFA"/>
<path fill-rule="evenodd" clip-rule="evenodd" d="M306.416 12L300.999 23.9846H307.484L308.288 22.0737H310.126L310.93 23.9846H318.068V22.5262L318.704 23.9846H322.397L323.033 22.4953V23.9846H337.878L339.684 22.1234L341.374 23.9846L348.999 24L343.565 18.0258L348.999 12H341.492L339.735 13.8268L338.098 12H321.948L320.561 15.0933L319.141 12H312.67V13.4088L311.95 12H306.416ZM307.673 13.701H310.834L314.427 21.8278V13.701H317.89L320.665 19.5279L323.223 13.701H326.669V22.3008H324.572L324.555 15.5621L321.498 22.3008H319.623L316.549 15.5621V22.3008H312.236L311.418 20.3728H307.001L306.185 22.2991H303.874L307.673 13.701ZM337.11 13.701H328.585V22.2957H336.978L339.683 19.4473L342.291 22.2957H345.016L341.055 18.0233L345.016 13.701H342.409L339.718 16.5167L337.11 13.701ZM309.21 15.1569L307.754 18.5913H310.664L309.21 15.1569ZM330.69 17.0525V15.4826V15.4811H336.009L338.33 17.9918L335.906 20.5161H330.69V18.8023H335.341V17.0525H330.69Z" fill="#898E90"/>
</svg>
