<svg width="109" height="108" viewBox="0 0 109 108" fill="none" xmlns="http://www.w3.org/2000/svg">
<path d="M54.5 108C84.3234 108 108.5 83.8234 108.5 54C108.5 24.1766 84.3234 0 54.5 0C24.6766 0 0.5 24.1766 0.5 54C0.5 83.8234 24.6766 108 54.5 108Z" fill="#0D80BF"/>
<path d="M54.4999 87.1338C38.7547 87.1338 25.559 76.0125 22.1336 61.1052H5.47363C9.09368 85.2408 29.6656 103.737 54.4999 103.737C79.3342 103.737 99.9062 85.2408 103.526 61.1052H86.8468C83.4408 76.0125 70.2452 87.1338 54.4999 87.1338Z" fill="white"/>
<path d="M13.2686 72.4254L18.391 70.0297L17.8457 68.8416L19.1507 68.2378L20.4751 71.062L14.0282 74.0615L13.2686 72.4254Z" fill="#0D80BF"/>
<path d="M21.2919 79.243C19.3442 80.509 17.6497 80.2558 16.559 78.5808C15.4488 76.8863 15.9163 75.2307 17.864 73.9647C19.8117 72.6987 21.5062 72.9519 22.5969 74.6464C23.6876 76.3409 23.2202 77.977 21.2919 79.243ZM18.8768 75.5229C17.5134 76.3994 17.1628 77.1005 17.6692 77.8601C18.1561 78.6003 18.9352 78.5808 20.2986 77.6848C21.662 76.8084 21.9931 76.1072 21.5062 75.3671C20.9998 74.6075 20.2402 74.6269 18.8768 75.5229Z" fill="#0D80BF"/>
<path d="M26.1821 84.618C24.4876 86.1956 22.7736 86.2541 21.4102 84.7738C20.0274 83.2935 20.2027 81.5796 21.8972 80.0019C23.5917 78.4243 25.3057 78.3658 26.6885 79.8656C28.0519 81.3458 27.8767 83.0598 26.1821 84.618ZM23.1632 81.3848C21.9751 82.495 21.7413 83.2351 22.3646 83.8973C22.9684 84.5596 23.728 84.3843 24.9161 83.2741C26.1042 82.1639 26.3185 81.4237 25.7147 80.781C25.0914 80.1188 24.3513 80.2746 23.1632 81.3848Z" fill="#0D80BF"/>
<path d="M34.1891 86.216L35.533 87.1509L27.3136 90.092L25.9697 89.1571L34.1891 86.216ZM30.839 86.4692C30.0794 87.5599 28.9887 87.7937 27.9953 87.112C27.002 86.4303 26.8267 85.3006 27.5863 84.2099C28.3459 83.1192 29.4367 82.8854 30.4495 83.5866C31.4428 84.2878 31.5986 85.398 30.839 86.4692ZM28.5212 84.8526C28.0927 85.4759 28.0927 86.0213 28.5407 86.3329C28.9887 86.6445 29.5146 86.4498 29.9431 85.8265C30.3716 85.2032 30.3716 84.6578 29.9236 84.3462C29.4756 84.0541 28.9497 84.2294 28.5212 84.8526ZM33.9554 92.1371C33.1957 93.2278 32.105 93.481 31.0922 92.7798C30.0989 92.0786 29.9431 90.9684 30.7027 89.8777C31.4623 88.787 32.553 88.5533 33.5658 89.2545C34.5397 89.9362 34.6955 91.0464 33.9554 92.1371ZM31.6181 90.501C31.1896 91.1243 31.1896 91.6891 31.6376 92.0007C32.0856 92.3124 32.6114 92.1176 33.0399 91.4943C33.4684 90.8711 33.4684 90.3257 33.0205 90.0141C32.5725 89.7024 32.0466 89.8972 31.6181 90.501Z" fill="#0D80BF"/>
<path d="M44.0811 94.3558L43.1852 96.9658C42.2892 97.219 41.0427 97.1995 40.0883 96.8879C38.0432 96.1867 37.0109 94.1805 37.6731 92.2328C38.3354 90.2851 40.4194 89.3502 42.5424 90.0903C43.5358 90.4409 44.4707 91.1811 44.9381 92.0186L43.5747 92.8561C43.2436 92.2328 42.6593 91.7264 42.036 91.5122C40.9258 91.1421 39.7962 91.7069 39.4066 92.8366C39.0171 93.9858 39.5819 95.1349 40.6921 95.5245C41.0427 95.6413 41.5296 95.6608 41.9971 95.6024L42.6009 93.8689L44.0811 94.3558Z" fill="#0D80BF"/>
<path d="M51.7002 96.2071C51.4276 98.0574 50.0252 99.0702 48.058 98.7781C46.0713 98.4859 44.9806 97.142 45.2533 95.2917L45.8376 91.2209L47.6295 91.4742L47.0452 95.5449C46.9089 96.4993 47.4347 97.1615 48.2917 97.2978C49.1293 97.4147 49.7915 96.9083 49.9278 95.9734L50.5121 91.9026L52.2845 92.1559L51.7002 96.2071Z" fill="#0D80BF"/>
<path d="M54.7367 97.8828L54.2693 99.2072L52.4189 99.2851L55.1847 92.0591L57.035 91.9812L60.3072 98.954L58.379 99.0319L57.8141 97.7464L54.7367 97.8828ZM56.1391 93.8121L55.2042 96.4804L57.2493 96.4025L56.1391 93.8121Z" fill="#0D80BF"/>
<path d="M64.4959 95.9927L64.4375 96.0122L63.113 96.3238L63.561 98.2715L61.8081 98.6806L60.2109 91.7662L63.3078 91.0455C65.1387 90.617 66.3852 91.2598 66.7358 92.7985C66.989 93.8502 66.7163 94.7267 65.9957 95.311L67.9823 97.2587L65.9957 97.7262L64.4959 95.9927ZM64.1258 94.6293C64.8855 94.454 65.236 93.9671 65.0802 93.227C64.9049 92.5063 64.379 92.2336 63.6194 92.4089L62.295 92.7205L62.8014 94.9215L64.1258 94.6293Z" fill="#0D80BF"/>
<path d="M70.6506 94.8044L70.7091 96.2068L69.0145 96.9469L68.9756 89.2145L70.6701 88.4744L76.26 93.7722L74.4876 94.5512L73.4943 93.5579L70.6506 94.8044ZM70.4753 90.5195L70.5922 93.3437L72.462 92.5256L70.4753 90.5195Z" fill="#0D80BF"/>
<path d="M81.6151 90.1495L76.4342 88.416L78.9273 91.9998L77.5444 92.9737L73.4932 87.15L74.7981 86.2346L79.9791 87.9681L77.486 84.3648L78.8689 83.4104L82.9201 89.2341L81.6151 90.1495Z" fill="#0D80BF"/>
<path d="M82.923 81.4622L86.8963 85.4745L85.6108 86.7405L81.6375 82.7282L80.1378 84.228L79.1055 83.1957L83.4099 78.9302L84.4422 79.9625L82.923 81.4622Z" fill="#0D80BF"/>
<path d="M85.8454 78.0159L86.9751 78.8534L88.9813 76.1266L90.1304 76.9641L88.1243 79.6909L89.2734 80.5285L91.5523 77.4121L92.7014 78.2496L89.3708 82.8268L83.6445 78.6392L86.9362 74.1594L88.0853 74.9969L85.8454 78.0159Z" fill="#0D80BF"/>
<path d="M89.423 72.4636L90.689 73.0868L92.2082 70.0679L93.4742 70.7106L91.955 73.7296L93.2405 74.3723L94.974 70.9249L96.24 71.5676L93.7079 76.6317L87.3584 73.4569L89.8515 68.4902L91.1175 69.133L89.423 72.4636Z" fill="#0D80BF"/>
<path d="M19.7141 44.3978L13.9294 43.3071L18.3507 46.0144L17.9222 48.3127L12.8192 49.2282L18.6039 50.3189L18.039 53.3573L7.48242 51.3901L8.16412 47.7089L14.1047 46.4429L9.02112 43.1123L9.70282 39.4312L20.2594 41.3983L19.7141 44.3978Z" fill="#FEFEFE"/>
<path d="M22.5334 27.141C25.2407 28.8355 25.903 32.1856 24.1111 35.0682C22.2997 37.9703 19.0081 38.8467 16.3007 37.1522C13.5934 35.4577 12.9701 32.1466 14.7815 29.2445C16.5929 26.3424 19.8456 25.4659 22.5334 27.141ZM18.229 34.0554C19.4755 34.8344 20.9752 34.5033 21.618 33.4516C22.2607 32.4193 21.8712 30.9974 20.6247 30.2184C19.3781 29.4393 17.9563 29.712 17.3135 30.7442C16.6513 31.8155 16.9824 33.2763 18.229 34.0554Z" fill="#FEFEFE"/>
<path d="M34.0668 24.3362L27.3472 22.6417L30.7362 26.9461L28.2042 28.9328L21.5625 20.4992L23.8998 18.6683L30.6389 20.3823L27.2304 16.0389L29.7624 14.0522L36.4041 22.5053L34.0668 24.3362Z" fill="#FEFEFE"/>
<path d="M38.957 12.8253L39.3855 14.0718L44.1184 12.3968L45.0143 14.9483L40.2814 16.6233L40.7294 17.8893L46.0856 16.0001L46.9815 18.5516L38.2753 21.6095L34.7109 11.4814L43.2809 8.4624L44.1768 11.0139L38.957 12.8253Z" fill="#FEFEFE"/>
<path d="M55.4335 18.0254L51.8887 18.1033L51.8108 14.8311L47.6816 7.46878L51.2265 7.39087L53.4858 11.4811L55.4725 7.29348L59.0173 7.21558L55.3556 14.7143L55.4335 18.0254Z" fill="#FEFEFE"/>
<path d="M73.8619 11.5005C76.2381 12.5328 77.3288 14.1883 76.6666 15.6881C76.2381 16.6619 75.2253 17.2073 74.0956 17.0709C75.1474 17.85 75.498 19.1745 74.9526 20.4015C74.2125 22.0766 72.1869 22.4856 69.7912 21.4338L64.5713 19.1355L68.8952 9.29956L73.8619 11.5005ZM68.8563 18.1811L70.4144 18.8628C71.0182 19.1355 71.5441 18.9992 71.7584 18.5123C71.9531 18.0838 71.6804 17.6163 71.0767 17.3631L69.5185 16.6814L68.8563 18.1811ZM70.4729 14.5194L72.031 15.2011C72.479 15.3959 72.9075 15.2401 73.0828 14.8116C73.2581 14.3831 73.0828 13.9936 72.6348 13.7988L71.0767 13.1171L70.4729 14.5194Z" fill="#FEFEFE"/>
<path d="M78.515 25.1743L77.0737 25.9144L74.4248 23.4213L85.0593 18.6494L87.7277 21.1425L83.5985 31.9913L80.8328 29.4008L81.4755 27.9205L78.515 25.1743ZM83.9102 22.428L80.9302 23.9472L82.5663 25.4664L83.9102 22.428Z" fill="#FEFEFE"/>
<path d="M96.4166 37.211L93.3003 36.5683C93.7677 35.5944 93.7872 34.4648 93.3977 33.7441C92.7744 32.6144 91.4305 32.2833 90.1839 32.965C88.9179 33.6467 88.4505 34.9712 89.0737 36.1008C89.4438 36.7825 90.3203 37.3863 91.3136 37.659L90.3787 40.5027C88.6647 40.0742 87.0481 38.8861 86.2496 37.4253C84.6719 34.5427 85.5873 31.3095 88.392 29.7708C91.1578 28.2516 94.3521 29.3033 95.9687 32.2638C96.7672 33.7246 96.9425 35.6723 96.4166 37.211Z" fill="#FEFEFE"/>
<path d="M93.4574 46.5795L92.133 45.7615L89.6399 46.19L89.0361 42.6841L99.6122 40.8337L100.216 44.3396L96.5543 44.9824L100.781 47.4949L101.482 51.5267L96.5738 48.5077L90.9254 53.5913L90.1853 49.4037L93.4574 46.5795Z" fill="#FEFEFE"/>
<path d="M54.4972 82.4215C70.1937 82.4215 82.9183 69.6969 82.9183 54.0004C82.9183 38.3039 70.1937 25.5793 54.4972 25.5793C38.8007 25.5793 26.0762 38.3039 26.0762 54.0004C26.0762 69.6969 38.8007 82.4215 54.4972 82.4215Z" fill="white"/>
<path d="M52.6687 76.2136C54.0194 77.0321 55.6823 77.0321 57.033 76.2136C61.8501 73.2941 72.9693 65.3978 72.9693 54.7107V42.2552C72.9693 40.1733 71.6793 38.3093 69.7309 37.5758L56.6125 32.6371C55.477 32.2096 54.2247 32.2096 53.0892 32.6371L39.9708 37.5758C38.0224 38.3093 36.7324 40.1733 36.7324 42.2552V54.7107C36.7324 65.3978 47.8516 73.2941 52.6687 76.2136Z" fill="#0D80BF"/>
<path d="M48.1035 53.6447L53.5509 59.6842L64.4456 47.6052" stroke="white" stroke-width="7" stroke-linecap="round" stroke-linejoin="round"/>
</svg>
