<?xml version="1.0" encoding="UTF-8"?>
<svg xmlns="http://www.w3.org/2000/svg" xmlns:xlink="http://www.w3.org/1999/xlink" xmlns:serif="http://www.serif.com/" width="100%" height="100%" viewBox="0 0 487 90" version="1.1" xml:space="preserve" style="fill-rule:evenodd;clip-rule:evenodd;stroke-linejoin:round;stroke-miterlimit:2;">
    <g id="Artboard1" transform="matrix(0.932146,0,0,0.561836,-149.946,-125.614)">
        <rect x="160.861" y="223.578" width="521.914" height="159.299" style="fill:none;"></rect>
        <clipPath id="_clip1">
            <rect x="160.861" y="223.578" width="521.914" height="159.299"></rect>
        </clipPath>
        <g clip-path="url(#_clip1)">
            <g transform="matrix(1.07279,0,0,1.77988,-29.7688,-226.532)">
                <g id="Layer1000">
                    <g>
                        <path id="path2" d="M177.71,340.584L177.71,273.563L185.2,273.563L185.2,284.28C187.74,280.17 190.839,277.071 194.541,275.004C198.243,272.916 202.526,271.884 207.39,271.884C212.017,271.884 216.064,272.701 219.551,274.337C223.037,275.973 225.706,278.319 227.556,281.332C228.525,282.882 229.214,284.775 229.644,286.971C230.054,289.166 230.269,292.803 230.269,297.84L230.269,340.583L222.262,340.583L222.262,299.024C222.262,291.167 221.057,285.851 218.647,283.054C216.215,280.256 211.974,278.857 205.883,278.857C199.62,278.857 194.67,280.837 191.033,284.818C187.396,288.778 185.588,294.202 185.588,301.046L185.588,340.583L177.71,340.584ZM359.787,289.248C361.278,282.022 363.913,277.55 366.614,273.449C372.453,264.582 382.376,258.148 391.585,256.296C397.251,255.157 401.664,254.663 405.57,254.397C408.318,254.21 410.789,253.92 413.503,252.948C414.3,252.692 414.496,253.272 414.426,253.551C414.129,254.729 412.677,254.846 410.349,257.348C409.167,258.618 407.866,260.082 406.544,261.848C400.989,269.274 396.981,273.294 388.895,277.132C380.506,281.116 371.995,279.528 365.665,285.405C366.166,284.519 366.697,283.679 367.257,282.882C369.622,279.518 372.506,276.917 375.773,274.872C378.523,273.152 382.023,271.537 385.735,269.826C391.078,267.361 396.058,265.634 400.699,261.844C401.823,260.925 402.793,259.961 402.991,259.268C402.355,259.683 401.448,260.253 400.52,260.827C395.416,263.983 390.706,266.069 385.278,268.572C381.538,270.296 378.011,271.923 375.152,273.712C371.718,275.861 368.684,278.598 366.195,282.139C364.391,284.706 362.874,287.691 361.7,291.177C360.833,293.292 360.288,295.723 359.992,298.547L360.162,306.299L360.179,306.297L360.179,340.584L352.172,340.584L352.172,273.563L359.683,273.563L359.683,283.809L359.669,283.882L359.683,284.526L359.683,285.314L359.7,285.275L359.787,289.248ZM299.743,273.563L299.743,340.583L292.254,340.583L292.254,329.865C289.692,334.105 286.572,337.247 282.891,339.314C279.21,341.358 274.842,342.391 269.806,342.391C262.251,342.391 256.569,340.411 252.76,336.429C248.95,332.469 247.056,326.529 247.056,318.652L247.056,273.563L254.804,273.563L254.804,316.822C254.804,323.494 256.074,328.251 258.592,331.07C261.111,333.889 265.307,335.289 271.205,335.289C277.618,335.289 282.697,333.33 286.421,329.392C290.144,325.474 291.995,320.073 291.995,313.228L291.995,273.563L299.743,273.563ZM327.378,254.321L327.378,273.563L339.776,273.563L339.776,279.89L327.378,279.89L327.378,328.724C327.378,331.587 327.745,333.481 328.454,334.407C329.165,335.332 330.434,335.805 332.286,335.805C333.082,335.805 333.986,335.72 334.997,335.568C336.009,335.418 337.58,335.117 339.711,334.643L339.776,340.842C337.881,341.336 336.16,341.703 334.61,341.918C333.061,342.155 331.597,342.263 330.198,342.263C326.345,342.263 323.612,341.294 322.019,339.335C320.427,337.376 319.63,333.847 319.63,328.725L319.63,279.89L310.483,279.89L310.483,273.563L319.63,273.563L319.63,254.321L327.378,254.321ZM434.97,305.459C432.904,306.212 430.278,306.815 427.05,307.288C423.842,307.74 418.655,308.171 411.51,308.558C406.539,309.849 402.793,311.7 400.276,314.09C397.757,316.5 396.488,319.383 396.488,322.741C396.488,326.572 397.844,329.607 400.556,331.888C403.267,334.148 406.969,335.289 411.639,335.289C418.742,335.289 424.402,333.46 428.621,329.78C432.861,326.099 434.97,321.084 434.97,314.735L434.97,305.459ZM435.465,330.856C431.935,334.687 428.126,337.549 423.993,339.421C419.883,341.315 415.427,342.263 410.692,342.263C403.913,342.263 398.511,340.497 394.508,336.968C390.483,333.438 388.481,328.724 388.481,322.849C388.481,319.039 389.406,315.703 391.236,312.841C393.065,310 395.713,307.74 399.2,306.083C403.203,304.275 409.875,303.027 419.194,302.316C421.002,302.23 422.379,302.123 423.305,302.037C423.842,301.929 424.574,301.778 425.5,301.606C431.892,300.293 435.099,297.517 435.099,293.298C435.099,288.069 433.808,284.345 431.225,282.107C428.621,279.847 424.381,278.728 418.441,278.728C412.436,278.728 407.83,279.976 404.623,282.472C401.437,284.969 399.716,288.693 399.457,293.6L391.838,293.535C392.011,286.863 394.464,281.59 399.221,277.716C403.977,273.82 410.37,271.884 418.441,271.884C426.468,271.884 432.581,273.605 436.735,277.049C440.888,280.492 442.976,285.529 442.976,292.158L442.976,328.724C442.976,331.501 443.32,333.223 443.988,333.889C444.655,334.557 445.925,334.901 447.754,334.901C448.357,334.901 448.852,334.901 449.282,334.88C449.691,334.859 450.143,334.816 450.595,334.772L450.595,340.583C449.627,340.799 448.658,340.949 447.69,341.057C446.721,341.164 445.839,341.229 445.043,341.229C441.858,341.229 439.468,340.455 437.875,338.883C436.283,337.333 435.465,335.009 435.465,331.932L435.465,330.856Z" style="fill:rgb(0,158,224);"></path>
                        <path id="path4" d="M604.036,309.701L617.935,270.636L634.555,270.636L647.303,305.98C645.645,305.075 643.915,304.201 642.167,303.445C639.052,302.099 635.471,301.366 631.708,301.189L626.302,284.645L620.594,302.168C614.482,303.498 608.59,306.084 604.036,309.701ZM476.065,340.584L451.939,270.636L467.893,270.636L482.777,322.959L497.954,270.636L513.714,270.636L489.879,340.584L476.065,340.584ZM520.913,340.584L520.913,270.636L535.311,270.636L535.311,340.584L520.913,340.584ZM564.805,340.584L564.805,283.089L544.083,283.089L544.083,270.636L599.827,270.636L599.827,283.089L579.202,283.089L579.202,340.584L564.805,340.584ZM604.244,315.188C616.807,308.008 631.467,312.227 635.772,313.096C641.583,314.268 645.334,315.022 651.25,315.467C652.326,315.547 653.384,315.619 654.134,315.656C653.581,316.108 652.251,316.323 650.821,316.407C644.921,316.759 641.154,315.549 635.433,314.396C630.878,313.477 614.905,309.503 604.244,315.188ZM603.148,311.9C613.22,303.256 630.793,299.996 642.167,304.913C647.511,307.224 652.693,310.638 656.131,312.687C658.549,314.129 660.784,315.32 663.545,316.051C664.341,316.292 664.234,316.918 664.042,317.122C663.234,317.986 661.947,317.241 658.79,318.083C657.185,318.511 655.39,319.039 653.434,319.823L652.438,320.217L659.784,340.583L644.672,340.583L639.057,323.478C636.672,323.582 634.144,323.416 631.237,322.964C625.856,322.129 620.451,319.938 615.117,318.987C612.758,326.256 610.509,333.386 608.207,340.583L593.047,340.583L599.529,322.365C598.276,317.776 600.37,314.283 603.148,311.899Z" style="fill:rgb(254,215,0);"></path>
                    </g>
                </g>
            </g>
        </g>
    </g>
</svg>
