<svg height="512" viewBox="0 0 512 512" width="512" xmlns="http://www.w3.org/2000/svg"><path d="m384 288h-32c-17.67 0-32 14.35-32 32.06v127.88c0 17.7 14.33 32.06 32 32.06h32c35.35 0 64-28.71 64-64.12v-63.76c0-35.41-28.65-64.12-64-64.12zm32 127.88c0 17.68-14.36 32.06-32 32.06h-32v-127.88h32c17.64 0 32 14.38 32 32.06zm-256-127.88h-32c-35.35 0-64 28.71-64 64.12v63.76c0 35.41 28.65 64.12 64 64.12h32c17.67 0 32-14.35 32-32.06v-127.88c0-17.71-14.33-32.06-32-32.06zm0 159.94h-32c-17.64 0-32-14.38-32-32.06v-63.76c0-17.68 14.36-32.06 32-32.06h32zm96-415.94c-141.16 0-256 114.85-256 256v120c0 4.42 3.58 8 8 8h16c4.42 0 8-3.58 8-8v-120c0-123.52 100.5-224 224-224s224 100.48 224 224v120c0 4.42 3.58 8 8 8h16c4.42 0 8-3.58 8-8v-120c0-141.15-114.84-256-256-256z" fill="#111"/></svg>
