<?xml version="1.0" encoding="utf-8"?>
<!-- Generator: Adobe Illustrator 18.0.0, SVG Export Plug-In . SVG Version: 6.00 Build 0)  -->
<!DOCTYPE svg PUBLIC "-//W3C//DTD SVG 1.1//EN" "http://www.w3.org/Graphics/SVG/1.1/DTD/svg11.dtd">
<svg version="1.1" id="Layer_1" xmlns="http://www.w3.org/2000/svg" xmlns:xlink="http://www.w3.org/1999/xlink" x="0px" y="0px"
	 viewBox="0 0 150 150" enable-background="new 0 0 150 150" xml:space="preserve">
<g>
	<g>
		<path d="M70.8,20.4c0-5.9-4.9-10.8-10.8-10.8c-6.1,0-10.8,4.9-10.8,10.8c0,5.9,4.9,10.8,10.8,10.8C65.9,31.2,70.8,26.5,70.8,20.4z
			 M53.9,20.4c0-3.3,2.8-6.1,6.1-6.1c3.3,0,6.1,2.8,6.1,6.1c0,3.3-2.8,6.1-6.1,6.1C56.5,26.5,53.9,23.9,53.9,20.4z M147.7,88.6
			h-43.8c-3-17.8-15-33-33.8-40.1C75,38.4,80.4,26.3,80.4,20.4C80.4,9.1,71.3,0,60,0S39.6,9.1,39.6,20.4c0,5.4,4.5,15.7,8.9,25.1
			C21.3,47.6,0,70.1,0,97.7C0,126.6,23.4,150,52.3,150c11.5,0,22.7-3.7,31.9-10.8v8.4c0,1.4,0.9,2.3,2.3,2.3h61.2
			c1.4,0,2.3-0.9,2.3-2.3V90.9C150,89.8,149.1,88.6,147.7,88.6z M114.8,93.3h4.5v4.5h-4.5V93.3z M99.8,95.2H85.8
			c-0.7-2.6-3-4.7-5.6-5.4c-0.5-6.1-1.4-11.7-3-17.1c3.5-1.9,7-4.2,10.1-7.3C94.7,73.4,99.1,83.9,99.8,95.2z M54.6,74.3V58.1
			c1.6,3,2.8,5.2,3.3,5.9c0.5,0.7,1.2,1.2,2.1,1.2s1.6-0.5,2.1-1.2c0.2-0.7,1.4-2.8,3-5.9c2.3,3.3,4.5,7.3,6.1,12.2
			C66.1,72.7,60.5,73.8,54.6,74.3z M72.9,75c1.2,4.7,2.1,9.8,2.6,15.2c-2.3,0.9-4.2,2.8-4.9,5.2H54.8V79
			C61.2,78.8,67.3,77.3,72.9,75z M54.8,100.3h15.7c0.7,2.3,2.6,4.2,4.9,5.2c-0.5,5.4-1.4,10.5-2.6,15.5c-4.2-1.9-8.4-3.3-12.7-3.7
			c-0.7-2.8-2.8-5.2-5.4-5.9V100.3z M74.8,97.7c0-1.9,1.4-3.3,3.3-3.3s3.3,1.4,3.3,3.3c0,1.9-1.4,3.3-3.3,3.3S74.8,99.6,74.8,97.7z
			 M83.9,62.1c-2.6,2.3-5.4,4.2-8.2,5.9c-2.1-5.9-4.9-10.8-8-14.5c0.2-0.2,0.2-0.5,0.5-0.7C74.1,55.1,79.5,58.1,83.9,62.1z
			 M44.3,20.4c-0.2-8.7,7-15.7,15.7-15.7c8.7,0,15.7,7,15.7,15.7c0,7.5-12.2,30.7-15.7,37.5C54.1,47.1,44.3,27.2,44.3,20.4z
			 M49.9,50.2v23.9c-5.9-0.2-11.5-1.6-16.6-4C37.3,58.8,43.4,51.6,49.9,50.2z M34.2,100.1h15.7v11c-2.8,0.9-4.9,3-5.4,5.9
			c-4.5,0.7-8.7,1.9-12.7,3.5c-1.4-4.9-2.3-10.1-2.6-15.5C31.6,104.3,33.5,102.4,34.2,100.1z M26.5,101c-1.9,0-3.3-1.4-3.3-3.3
			c0-1.9,1.4-3.3,3.3-3.3s3.3,1.6,3.3,3.3C29.8,99.6,28.4,101,26.5,101z M34.2,95.2c-0.7-2.3-2.6-4.2-4.9-5.2
			c0.5-5.4,1.4-10.5,2.6-15.5c5.6,2.6,11.7,4,18,4.2v16.4H34.2z M38.4,52c-3.8,4-7,9.4-9.4,16.2c-3-1.6-5.9-3.7-8.4-6.1
			C25.8,57.7,31.6,54.1,38.4,52z M17.3,65.4c3,2.8,6.6,5.4,10.3,7.3c-1.6,5.4-2.6,11.3-3,17.1c-2.6,0.7-4.9,2.8-5.6,5.4H4.9
			C5.4,83.9,10.1,73.4,17.3,65.4z M4.9,100.1H19v0.2c0,0.2,0,0.5,0.2,0.5c0.2,0.2,0.2,0.5,0.5,0.9c0,0.2,0.2,0.5,0.2,0.5
			c0.2,0.2,0.5,0.7,0.7,0.9l0.2,0.2c0.7,0.7,1.4,1.2,2.3,1.6c0,0,0,0,0.2,0c0.5,0.2,0.7,0.2,1.2,0.2c0.5,6.1,1.4,11.7,3,17.3
			c-3.8,1.9-7,4.5-10.3,7.3C10.1,121.9,5.4,111.6,4.9,100.1z M20.9,133.1c2.3-2.1,5.2-4.2,8.2-5.9c2.3,6.8,5.6,12.2,9.4,15.9
			C31.9,141.1,25.8,137.6,20.9,133.1z M49.9,145.1c-6.6-1.4-12.7-8.9-16.6-19.9c3.8-1.6,7.5-2.8,11.5-3.3c0.9,2.3,2.8,4,5.2,4.7
			V145.1z M52.3,122.1c-1.9,0-3.3-1.4-3.3-3.3c0-1.9,1.4-3.3,3.3-3.3s3.3,1.4,3.3,3.3C55.5,120.7,54.1,122.1,52.3,122.1z
			 M54.8,145.1v-18.5c2.1-0.9,4-2.6,4.9-4.7c4,0.7,8,1.9,11.7,3.3C67.5,136.2,61.4,143.7,54.8,145.1z M66.3,143.2
			c3.5-3.8,6.8-9.4,9.1-15.9c3,1.6,5.9,3.8,8.4,5.9C78.8,137.6,72.9,141.1,66.3,143.2z M76.9,122.6c1.6-5.4,2.6-11.2,3-17.3
			c2.8-0.7,4.9-2.8,5.6-5.4h14.1c-0.5,11.7-4.9,22-12.4,30C84.1,127,80.6,124.7,76.9,122.6z M145.3,135.9h-5.2
			c-1.4,0-2.3,0.9-2.3,2.3s0.9,2.3,2.3,2.3h5.2v4.7H88.8V135c0,0,0.2,0,0.2-0.2c0,0,0,0,0-0.2c9.6-9.4,15.5-22.5,15.5-37
			c0-1.4,0-2.8-0.2-4.2h5.9v6.8c0,1.4,0.9,2.3,2.3,2.3h9.1c1.4,0,2.3-0.9,2.3-2.3v-6.8h21.3V135.9z"/>
	</g>
</g>
</svg>
