<?xml version="1.0" encoding="utf-8"?>
<!-- Generator: Adobe Illustrator 18.0.0, SVG Export Plug-In . SVG Version: 6.00 Build 0)  -->
<!DOCTYPE svg PUBLIC "-//W3C//DTD SVG 1.1//EN" "http://www.w3.org/Graphics/SVG/1.1/DTD/svg11.dtd">
<svg version="1.1" id="Layer_1" xmlns="http://www.w3.org/2000/svg" xmlns:xlink="http://www.w3.org/1999/xlink" x="0px" y="0px"
	 viewBox="0 0 150 150" enable-background="new 0 0 150 150" xml:space="preserve">
<g>
	<g>
		<path d="M121.1,66.2L83.7,28.9c-2.1-2.1-4.9-3.3-7.9-3.3c-3,0-5.8,1.2-7.9,3.3L3.8,93c-4.4,4.3-4.4,11.4,0,15.8L41.2,146
			c2.2,2.2,5,3.3,7.9,3.3c2.9,0,5.7-1.1,7.9-3.3L121.1,82C125.4,77.6,125.4,70.6,121.1,66.2z M6.5,106.1c-2.9-2.9-2.9-7.6,0-10.5
			l64.1-64.1c1.4-1.4,3.3-2.2,5.2-2.2c2,0,3.8,0.8,5.2,2.2l1.4,1.4L7.8,107.4L6.5,106.1z M10.5,110.1l74.6-74.5l6.9,6.9L17.4,117
			L10.5,110.1z M118.4,79.3l-64.1,64.1c-2.9,2.9-7.6,2.9-10.5,0l-23.7-23.7l74.6-74.5l23.7,23.7C121.3,71.7,121.3,76.5,118.4,79.3z
			 M46.1,120.3l-4.4,4.4c-0.7,0.7-0.7,1.9,0,2.7c0.4,0.4,0.8,0.5,1.3,0.5c0.5,0,1-0.2,1.3-0.5l4.4-4.4c0.7-0.7,0.7-1.9,0-2.7
			C48.1,119.6,46.9,119.6,46.1,120.3z M57.9,108.5l-4.4,4.4c-0.7,0.7-0.7,1.9,0,2.7c0.4,0.4,0.8,0.5,1.3,0.5c0.5,0,1-0.2,1.3-0.5
			l4.4-4.4c0.7-0.7,0.7-1.9,0-2.7C59.9,107.8,58.7,107.8,57.9,108.5z M69.8,96.7l-4.4,4.4c-0.7,0.7-0.7,1.9,0,2.7
			c0.4,0.4,0.8,0.5,1.3,0.5c0.5,0,1-0.2,1.3-0.5l4.4-4.4c0.7-0.7,0.7-1.9,0-2.7C71.7,96,70.5,96,69.8,96.7z M85.7,66.5
			c-1.3,1.3-2.2,2.8-2.8,4.4c-1.6,0.6-3.1,1.5-4.4,2.8c-4.7,4.7-4.7,12.2,0,16.9c2.3,2.3,5.4,3.5,8.5,3.5c3.1,0,6.1-1.2,8.5-3.5
			c1.3-1.3,2.2-2.8,2.8-4.4c1.6-0.6,3.1-1.5,4.4-2.8c4.7-4.7,4.7-12.2,0-16.9C97.9,61.9,90.3,61.9,85.7,66.5z M92.8,87.9
			c-3.2,3.2-8.4,3.2-11.6,0c-3.2-3.2-3.2-8.4,0-11.6c0.3-0.3,0.7-0.6,1-0.8c0.1,2.9,1.3,5.7,3.5,7.9c2.2,2.2,5.1,3.3,8,3.5
			C93.4,87.3,93.1,87.6,92.8,87.9z M95.1,83.1c-2.4,0.3-4.9-0.5-6.8-2.3c-1.8-1.8-2.6-4.4-2.3-6.8c2.4-0.3,4.9,0.5,6.8,2.3
			C94.6,78.2,95.4,80.7,95.1,83.1z M99.9,80.8c-0.3,0.3-0.7,0.6-1,0.8c-0.1-2.9-1.3-5.7-3.5-7.9c-2.2-2.2-5.1-3.4-8-3.5
			c0.3-0.3,0.5-0.7,0.8-1c3.2-3.2,8.4-3.2,11.6,0C103.1,72.4,103.1,77.6,99.9,80.8z M24.6,49.1c13.6,0,24.6-11,24.6-24.6
			C49.2,11,38.1,0,24.6,0C11,0,0,11,0,24.6C0,38.1,11,49.1,24.6,49.1z M24.6,3.7c11.5,0,20.8,9.3,20.8,20.8
			c0,11.5-9.3,20.8-20.8,20.8C13.1,45.4,3.8,36,3.8,24.6C3.8,13.1,13.1,3.7,24.6,3.7z M15.7,25.3h1.7c-0.5,3.8-1.5,7.9-3.3,10.4
			c-0.4,0.6-0.5,1.3-0.1,1.9c0.3,0.6,1,1,1.7,1h15.8c1,0,1.9-0.8,1.9-1.9c0-1-0.8-1.9-1.9-1.9H18.8c1.3-2.9,2-6.5,2.4-9.6h5.4
			c1,0,1.9-0.8,1.9-1.9c0-1-0.8-1.9-1.9-1.9h-5c0.1-2,0.2-3.4,0.2-3.6c0-2.6,2.2-4.8,4.8-4.8c2.7,0,4.8,2.2,4.8,4.8
			c0,1,0.8,1.9,1.9,1.9c1,0,1.9-0.8,1.9-1.9c0-4.7-3.8-8.6-8.6-8.6c-4.7,0-8.6,3.8-8.6,8.5c0,0.9-0.1,2.1-0.2,3.6h-2.1
			c-1,0-1.9,0.8-1.9,1.9C13.8,24.4,14.6,25.3,15.7,25.3z M112.7,45.6c3.9,2.4,8.3,3.6,12.7,3.6c2,0,4-0.2,5.9-0.7
			c6.4-1.6,11.8-5.5,15.2-11.1c7-11.6,3.3-26.7-8.3-33.7c-11.6-7-26.7-3.3-33.8,8.3c-3.4,5.6-4.4,12.2-2.8,18.6
			C103.1,36.8,107.1,42.2,112.7,45.6z M107.6,13.8c3.9-6.5,10.8-10,17.8-10c3.7,0,7.4,1,10.8,3c9.8,5.9,13,18.8,7,28.6
			c-2.9,4.8-7.4,8.1-12.8,9.4c-5.4,1.3-11,0.5-15.8-2.4c-4.8-2.9-8.1-7.4-9.4-12.8C103.9,24.1,104.7,18.5,107.6,13.8z M110.5,32
			l13.5,8.2c0.3,0.2,0.6,0.3,1,0.3c0.6,0,1.3-0.3,1.6-0.9c0.5-0.9,0.3-2-0.6-2.6l-10.8-6.5c2.6-1.9,5-4.5,7-6.9l4.6,2.8
			c0.3,0.2,0.6,0.3,1,0.3c0.6,0,1.3-0.3,1.6-0.9c0.5-0.9,0.3-2-0.6-2.6l-4.3-2.6c1.2-1.7,1.9-2.9,2-3c1.4-2.3,4.3-3,6.6-1.6
			c1.1,0.7,1.9,1.7,2.2,3c0.3,1.2,0.1,2.5-0.6,3.6c-0.5,0.9-0.3,2,0.6,2.6c0.9,0.5,2,0.3,2.6-0.6c1.2-2,1.5-4.3,1-6.5
			c-0.5-2.2-1.9-4.1-3.9-5.3c-4-2.4-9.3-1.1-11.8,2.9c-0.4,0.7-1.1,1.8-2,3l-1.8-1.1c-0.9-0.5-2-0.3-2.6,0.6c-0.5,0.9-0.3,2,0.6,2.6
			l1.5,0.9c-2.4,3-5.4,6-8.1,7.2c-0.6,0.3-1.1,0.9-1.1,1.6C109.6,30.9,109.9,31.6,110.5,32z M145.7,111.5c-3.7-5.4-9.3-9-15.8-10.2
			c-6.5-1.2-13,0.2-18.4,3.9c-11.2,7.7-14,23-6.4,34.1c4.8,6.9,12.5,10.6,20.3,10.6c4.8,0,9.6-1.4,13.9-4.3
			C150.5,138,153.4,122.7,145.7,111.5L145.7,111.5z M137.2,142.6c-4.6,3.1-10.1,4.3-15.6,3.3c-5.5-1-10.2-4.1-13.4-8.7
			c-3.1-4.6-4.3-10.1-3.3-15.6c1-5.5,4.1-10.2,8.7-13.4c3.5-2.4,7.6-3.7,11.7-3.7c1.3,0,2.6,0.1,3.8,0.4c5.5,1,10.2,4.1,13.4,8.7
			C149.1,123.1,146.7,136.1,137.2,142.6z M136.9,130l-10.4,7.1c-0.6-3.1-2-6.5-3.5-9.2l4.4-3c0.9-0.6,1.1-1.8,0.5-2.6
			c-0.6-0.9-1.7-1.1-2.6-0.5l-4.1,2.8c-1-1.8-1.8-2.9-1.9-3.1c-0.7-1.1-1-2.3-0.8-3.6c0.2-1.3,0.9-2.4,2-3.1c1.1-0.7,2.3-1,3.6-0.8
			c1.3,0.2,2.4,0.9,3.1,2c0.6,0.9,1.8,1.1,2.6,0.5c0.9-0.6,1.1-1.8,0.5-2.6c-1.3-1.9-3.2-3.2-5.5-3.6c-2.3-0.4-4.5,0.1-6.4,1.4
			c-1.9,1.3-3.2,3.2-3.6,5.5c-0.4,2.2,0.1,4.5,1.4,6.4c0.5,0.7,1.2,1.8,1.9,3.1l-1.8,1.2c-0.9,0.6-1.1,1.8-0.5,2.6
			c0.4,0.5,1,0.8,1.5,0.8c0.4,0,0.7-0.1,1.1-0.3l1.4-1c1.7,3.4,3.2,7.4,3.2,10.4c0,0.7,0.4,1.3,1,1.7c0.3,0.1,0.6,0.2,0.9,0.2
			c0.4,0,0.7-0.1,1.1-0.3l13-8.9c0.9-0.6,1.1-1.8,0.5-2.6C139,129.7,137.8,129.4,136.9,130z"/>
	</g>
</g>
</svg>
