<?xml version="1.0" encoding="utf-8"?>
<!-- Generator: Adobe Illustrator 18.0.0, SVG Export Plug-In . SVG Version: 6.00 Build 0)  -->
<!DOCTYPE svg PUBLIC "-//W3C//DTD SVG 1.1//EN" "http://www.w3.org/Graphics/SVG/1.1/DTD/svg11.dtd">
<svg version="1.1" id="Layer_1" xmlns="http://www.w3.org/2000/svg" xmlns:xlink="http://www.w3.org/1999/xlink" x="0px" y="0px"
	 viewBox="0 0 150 148" enable-background="new 0 0 150 148" xml:space="preserve">
<g>
	<g>
		<path d="M1.8,42.3L12,49.2c0.7,0.5,1.4,0.7,2.4,0.7c1.2,0,2.6-0.7,3.3-1.6l0.2-0.5L44.8,66c1.2,0.9,2.6,1.4,4.3,1.4h1.2l6.6-0.9
			c-0.2,0.5-0.5,0.7-0.7,1.2c-0.7,1.6-0.5,3.5,0.2,4.8c0.7,1.6,2.1,2.8,3.8,3.5c0.7,0.2,1.7,0.5,2.4,0.5c0.9,0,1.9-0.2,2.8-0.7
			l10.9-4.8c1.4-0.5,2.4-1.6,3.1-2.8l38.7,26.5c0.5,0.2,0.9,0.5,1.4,0.5c0.7,0,1.4-0.2,1.9-0.9c6.6-9,21.4-29.8,28-39
			c0.7-1.2,0.5-2.5-0.5-3.2L85.2,8.3c-1.2-0.7-2.6-0.5-3.3,0.5l-4,5.8l-0.7-0.7c-1.4-2.3-4-3.9-6.9-3.7l-26.8,1.4v-1.4
			c-0.2-0.9-0.7-1.8-1.7-2.5L31.5,0.7c-1.9-1.2-4.3-0.9-5.7,0.9L0.6,36.9C-0.5,38.6-0.1,41.1,1.8,42.3z M74,66.7l-10.9,4.6
			c-0.5,0.2-0.9,0.2-1.4,0c-0.5-0.2-0.9-0.5-1.2-0.9c-0.2-0.5-0.2-0.9,0-1.4c0.2-0.5,0.5-0.9,0.9-1.2L70,64l2.6-0.5l2.4,1.6
			C75,66,74.5,66.5,74,66.7z M84.5,13.6l59.8,40.9l-2.4,3.2L82.1,16.9L84.5,13.6z M79.2,20.8l59.8,40.6c0,0.2-2.7,3.7-2.9,3.9
			L76.4,24.7L79.2,20.8z M133.6,69.3l-14.7,20.3L79.5,62.8l1.2-0.2c4.7-0.7,8.3-3.9,8.1-9c-0.2-4.4-3.8-8.1-8.3-8.5l-17.8-1.6
			l10.9-15L133.6,69.3z M70.7,14.6c0.9,0,1.9,0.5,2.4,1.4l1.7,3l-17.3,24h-1.2c-1.4,0-2.4,0.9-2.6,2.1c0,1.2,0.9,2.3,2.1,2.5
			l24.5,2.1c1.9,0.2,3.8,1.6,3.8,3.9c0,2.8-1.7,3.7-4.3,4.4c-6.2,0.9-14.5,2.3-30.4,4.6c-0.7,0-1.4,0-1.9-0.5L20.6,43.9l19.9-27.7
			L70.7,14.6z M29.6,4.9l9,6.2C38.4,11.3,15.7,43,14.2,45l-9-6.2L29.6,4.9z M95.6,63l5.5,3.7c1.2,0.7,2.6,0.5,3.3-0.5
			c0.7-1.2,0.5-2.5-0.5-3.2l-5.5-3.7c-1.2-0.7-2.6-0.5-3.3,0.5C94.4,61,94.7,62.3,95.6,63z M109.9,72.7l5.5,3.7
			c1.2,0.7,2.6,0.5,3.3-0.5c0.7-0.9,0.5-2.5-0.5-3.2l-5.5-3.7c-1.2-0.7-2.6-0.5-3.3,0.5C108.7,70.7,108.9,72,109.9,72.7z M137,99.3
			l-31.1,9.2c-4-5.5-15.2-5.3-16.6-5.3c-12.6,0.5-25.4-3.7-25.6-3.7c-12.8-3.9-24,4.6-24.5,4.8l-0.2,0.2
			c-5.2,5.3-28.7,14.1-37.3,16.9c-1.2,0.5-1.9,1.6-1.4,3c0.5,1.2,1.7,1.8,3.1,1.4c1.2-0.5,31.6-10.6,38.9-17.8
			c0.9-0.7,10.2-7.2,19.9-4.2c0.5,0.2,13.8,4.4,27.3,3.9c17.3-0.7,17.8,11.8,1.7,9.9c-10-0.5-22.6-0.5-25.2,1.4
			c-0.9,0.7-1.2,2.3-0.5,3.2c0.7,0.9,2.1,1.2,3.3,0.5c1.9-0.9,12.8-0.9,22.1-0.5c6.2,0.7,10.9-0.2,13.8-2.8c1.9-1.8,2.8-3.9,2.8-6.7
			l30.9-9.2c2.6-0.7,5.2,0.2,6.4,2.5c0.9,1.6,0.2,3.5-1.2,4.2l-43,22.6c-2.6,1.4-5.2,1.8-8.1,1.6c-16.1-1.6-54.9-3.9-67.7,9.5
			c-0.9,0.9-0.9,2.3,0,3.2c0.9,0.9,2.4,0.9,3.3,0c11.6-12,51.8-9.2,63.9-7.8c3.8,0.5,7.6-0.5,10.9-2.1l43-22.6
			c3.6-2.3,5.2-6.9,2.8-10.8C146.5,99.7,141.5,97.9,137,99.3z"/>
	</g>
</g>
</svg>
