<?xml version="1.0" encoding="utf-8"?>
<!-- Generator: Adobe Illustrator 18.0.0, SVG Export Plug-In . SVG Version: 6.00 Build 0)  -->
<!DOCTYPE svg PUBLIC "-//W3C//DTD SVG 1.1//EN" "http://www.w3.org/Graphics/SVG/1.1/DTD/svg11.dtd">
<svg version="1.1" id="Layer_1" xmlns="http://www.w3.org/2000/svg" xmlns:xlink="http://www.w3.org/1999/xlink" x="0px" y="0px"
	 viewBox="0 0 160 147" enable-background="new 0 0 160 147" xml:space="preserve">
<g>
	<g>
		<path d="M82.3,87.7l77.7-36L135.9,0l-105,48.7l6.8,14.6L19.8,86l-3.4-7.3L0,86.3L28.4,147l16.4-7.6l-3.4-7.3l18.8-8.7L82.3,87.7z
			 M36.8,50.8l96.9-44.9L154,49.5L86.5,80.8l3.5-5.6l44.1-20.4l-0.4-1.8c-1.1-4.9,1.4-9.9,5.9-12c0.6-0.3,1.2-0.5,1.9-0.7l2.6-0.7
			l-8.7-18.7l-2.2,1.6c-0.6,0.4-1.2,0.8-1.7,1c-4.8,2.2-10.4,0.7-13.4-3.7l-1.1-1.6L58.1,45.4l0.5,1.8c1.5,5.1-1,10.4-5.8,12.6
			c-0.5,0.2-1,0.4-1.7,0.6l-2.5,0.7l8.7,18.5l2.2-1.5c0.6-0.4,1.1-0.7,1.5-0.9c1.3-0.6,2.7-0.9,4.1-1l-11,11.5L36.8,50.8z
			 M63.4,47.9l52.1-24.2c4.4,5,11.6,6.7,17.8,3.8c0.1,0,0.1-0.1,0.2-0.1l4.4,9.4c-0.1,0-0.1,0.1-0.2,0.1c-5.9,2.7-9.3,9-8.7,15.3
			L92.6,69c0-0.6,0-1.1-0.1-1.8c-0.5-2.4-2.1-4.5-4.8-6.1c-1.3-0.8-2.6-1.2-3.9-1.2c-3.3,0-5.5,2.4-6,3.1L69,72.3
			c-3.3-0.8-6.7-0.4-9.8,1l-4.4-9.4C61,61,64.4,54.5,63.4,47.9z M30.6,141.1L6,88.4l8.3-3.8l24.6,52.6L30.6,141.1z M39.5,128.1
			L22,90.5l17.9-22.7l13,27.9L81.1,66l0.2-0.2c0,0,1.1-1.4,2.5-1.4c0.5,0,1,0.2,1.6,0.5c1.6,0.9,2.5,2,2.7,3.1
			c0.3,1.5-0.7,2.8-0.7,2.8L57.1,120L39.5,128.1z M97.6,81.7l-14.9,6.9L65,117.1l0.6,1.1c1.6,2.9,4.6,4.7,7.9,4.7
			c1.3,0,2.6-0.3,3.7-0.8c2.7-1.3,4.5-3.8,5-6.5c2.1,0.7,4.4,0.5,6.4-0.4c2.2-1,3.8-2.8,4.6-5c0.4-1,0.6-2.1,0.5-3.2
			c1.8,0.3,3.7,0.1,5.4-0.7c4.5-2.1,6.4-7.4,4.3-11.8L97.6,81.7z M97.3,102.2c-2.2,1-4.9,0-5.9-2.1l-4.1,1.9c0,0,0,0,0,0l1.5,3.3
			c0.5,1.1,0.5,2.3,0.1,3.4c-0.4,1.1-1.2,2-2.3,2.5c-2.2,1-4.9,0-5.9-2.1l-4.1,1.9c0,0,0,0,0,0l0.6,1.3c1,2.2,0.1,4.8-2.1,5.8
			c-0.6,0.3-1.2,0.4-1.8,0.4c-1.2,0-2.4-0.5-3.2-1.4l15.5-25l9.6-4.5l4.1,8.7C100.5,98.6,99.5,101.2,97.3,102.2z M95.5,62.7
			c1.8,0,3.6-0.4,5.3-1.2c3-1.4,5.3-3.9,6.5-7c1.1-3.1,1-6.5-0.4-9.5c-2-4.4-6.5-7.2-11.3-7.2c-1.8,0-3.6,0.4-5.3,1.2
			c-3,1.4-5.3,3.9-6.5,7c-1.1,3.1-1,6.5,0.4,9.5C86.3,59.9,90.7,62.7,95.5,62.7z M88,47.6c0.7-2,2.2-3.6,4.1-4.5
			c1.1-0.5,2.2-0.7,3.4-0.7c3.1,0,5.9,1.8,7.2,4.6c0.9,1.9,1,4.1,0.3,6.1c-0.7,2-2.2,3.6-4.1,4.5c-1.1,0.5-2.2,0.7-3.4,0.7
			c-3.1,0-5.9-1.8-7.2-4.6C87.4,51.7,87.3,49.6,88,47.6z"/>
	</g>
</g>
</svg>
