<?xml version="1.0" encoding="utf-8"?>
<!-- Generator: Adobe Illustrator 18.0.0, SVG Export Plug-In . SVG Version: 6.00 Build 0)  -->
<!DOCTYPE svg PUBLIC "-//W3C//DTD SVG 1.1//EN" "http://www.w3.org/Graphics/SVG/1.1/DTD/svg11.dtd">
<svg version="1.1" id="Layer_1" xmlns="http://www.w3.org/2000/svg" xmlns:xlink="http://www.w3.org/1999/xlink" x="0px" y="0px"
	 viewBox="0 0 130 133" enable-background="new 0 0 130 133" xml:space="preserve">
<g>
	<g>
		<path d="M49.2,48.5c-1,0-1.8,0.8-1.8,1.7V55c0,1,0.8,1.7,1.8,1.7s1.8-0.8,1.8-1.7v-4.8C50.9,49.3,50.1,48.5,49.2,48.5z
			 M115.5,119.4v-10.2h-11.3V0H25.8v109.2H14.5v10.2H0V133h130v-13.7H115.5z M112,112.7v6.8H88.6v-6.8H112z M100.7,109.2h-5.6V11.6
			l5.6-5.6V109.2z M98.3,3.5l-5.6,5.6H37.4l-5.6-5.6H98.3z M29.3,6l5.6,5.6v97.6h-5.6V6z M41.4,129.7H3.5v-6.8h37.9V129.7z
			 M41.4,119.5H18v-6.8h23.4V119.5z M85.1,128.7H45V96.5h10.8v18.4l5.4-2.7l3.8,1.7l3.7-1.7l4.9,2.9V96.3h11.5V128.7z M62.2,81.4
			l2.7,1.3l2.7-1.3l4.1,2.4v-14h7.5v22.7H50.8V69.8h7v13.8L62.2,81.4z M61.3,77.9v-8.1h7v7.9l-0.5-0.3l-2.9,1.4l-2.9-1.4L61.3,77.9z
			 M70.2,96.5V109l-1.3-0.8l-3.8,1.9l-3.8-1.9l-1.9,1V96.3L70.2,96.5z M82.6,92.8V66.1H47.1v26.7h-5.9c0.2,0.2,0.2,16.4,0.2,16.4h-3
			V12.6h53.1v96.6h-3V92.8H82.6z M126.5,129.9H88.6V123h37.9V129.9z"/>
	</g>
</g>
</svg>
