<svg height="512" viewBox="0 0 512 512" width="512" xmlns="http://www.w3.org/2000/svg"><path d="m505.09 19.34a16.08 16.08 0 0 0 -12.36-12.34c-32.61-7-58.13-7-83.56-7-103.73 0-166.17 55.1-212.9 128h-101.4a48 48 0 0 0 -42.87 26.49l-49.42 98.8a24 24 0 0 0 21.49 34.71h92.6l-10.59 21.42a31.75 31.75 0 0 0 6.15 36.63l53.77 53.72a32 32 0 0 0 22.61 9.43 31.58 31.58 0 0 0 14-3.29l21.39-10.58v92.67a24.08 24.08 0 0 0 24 24 23.66 23.66 0 0 0 10.63-2.53l98.7-49.39a47.91 47.91 0 0 0 26.5-42.9v-101.47c72.78-46.78 128.17-109.46 128.17-212.71.08-25.53.08-51-6.91-83.66zm-377.09 236.66h-91l43.59-87.2a16.09 16.09 0 0 1 14.28-8.8h85.18c-13.94 28.07-31.72 64-47.56 96zm223.86 161.18a16 16 0 0 1 -8.86 14.28l-87 43.54v-95.52c32-15.83 67.82-33.59 95.86-47.54zm14.64-128.28c-39.5 19.78-135.87 67.45-177.91 88.24l-53.82-53.55c20.87-42.23 68.53-138.59 88.23-178.18 50.21-78.41 107.68-113.41 186.17-113.41 21.54 0 42 0 66.63 4.29 4.34 24.87 4.26 45.21 4.18 66.7.02 78.08-34.98 135.47-113.48 185.91zm1.5-208.9a64 64 0 1 0 64 64 64.07 64.07 0 0 0 -64-64zm0 96a32 32 0 1 1 32-32 32 32 0 0 1 -32 32z" fill="#111"/></svg>
