<?xml version="1.0" encoding="utf-8"?>
<!-- Generator: Adobe Illustrator 18.0.0, SVG Export Plug-In . SVG Version: 6.00 Build 0)  -->
<!DOCTYPE svg PUBLIC "-//W3C//DTD SVG 1.1//EN" "http://www.w3.org/Graphics/SVG/1.1/DTD/svg11.dtd">
<svg version="1.1" id="Layer_1" xmlns="http://www.w3.org/2000/svg" xmlns:xlink="http://www.w3.org/1999/xlink" x="0px" y="0px"
	 viewBox="0 0 56 52.8" enable-background="new 0 0 56 52.8" xml:space="preserve">
<g>
	<g>
		<path d="M50.2,4.6H36.1C34.5,1.8,31.5,0,28,0c-3.5,0-6.6,1.9-8.2,4.7V4.6h-14C2.6,4.6,0,7.2,0,10.3v29.8c0,3.2,2.6,5.7,5.8,5.7H21
			c-0.4,1.7-1,3.3-2.1,4.6h-2.6v2.3h23.3v-2.3h-2.6c-1.1-1.3-1.7-2.9-2.1-4.6h15.2c3.2,0,5.8-2.6,5.8-5.7V10.3
			C56,7.2,53.4,4.6,50.2,4.6z M28,2.3c3.9,0,7,3.1,7,6.9c0,3.8-3.1,6.9-7,6.9c-3.9,0-7-3.1-7-6.9C21,5.4,24.1,2.3,28,2.3z
			 M20.7,14.9c1.7,2.1,4.3,3.4,7.3,3.4c2.9,0,5.6-1.3,7.3-3.4h2.9l-1.8,6.9H19.6l-1.8-6.9H20.7z M21.8,50.5c0.8-1.5,1.3-3,1.6-4.6
			h9.2c0.3,1.6,0.9,3.1,1.6,4.6H21.8z M53.7,40.2c0,1.9-1.6,3.4-3.5,3.4H5.8c-1.9,0-3.5-1.5-3.5-3.4v-3.4h51.3V40.2z M53.7,34.4H2.3
			V10.3c0-1.9,1.6-3.4,3.5-3.4H19c-0.2,0.7-0.3,1.5-0.3,2.3c0,1.2,0.2,2.4,0.7,3.4h-2.2L16.3,10c-0.2-0.5-0.6-0.8-1.1-0.8h-4.7v2.3
			h3.8l0.9,2.6l2.3,9v5.6c0,0.6,0.5,1.1,1.2,1.1H20c0.5,1.3,1.8,2.3,3.3,2.3s2.8-1,3.3-2.3h3.9c0.5,1.3,1.8,2.3,3.3,2.3
			c1.5,0,2.8-1,3.3-2.3h1.4v-2.3h-1.4c-0.5-1.3-1.8-2.3-3.3-2.3c-1.5,0-2.8,1-3.3,2.3h-3.9c-0.5-1.3-1.8-2.3-3.3-2.3s-2.8,1-3.3,2.3
			h-0.2v-3.4h17.5c0.5,0,1-0.4,1.1-0.9l2.3-9.2c0-0.1,0-0.2,0-0.3c0-0.6-0.5-1.1-1.2-1.1h-3c0.4-1.1,0.7-2.2,0.7-3.4
			c0-0.8-0.1-1.6-0.3-2.3h13.1c1.9,0,3.5,1.5,3.5,3.4V34.4z M22.2,28.7c0-0.6,0.5-1.1,1.2-1.1c0.6,0,1.2,0.5,1.2,1.1
			c0,0.6-0.5,1.1-1.2,1.1C22.7,29.8,22.2,29.3,22.2,28.7z M32.7,28.7c0-0.6,0.5-1.1,1.2-1.1c0.6,0,1.2,0.5,1.2,1.1
			c0,0.6-0.5,1.1-1.2,1.1C33.2,29.8,32.7,29.3,32.7,28.7z M31.5,39h-7v2.3h7V39z M26.8,7.4v6.4h2.3V7.4l1.5,1.5l1.6-1.6l-3.5-3.4
			c-0.5-0.4-1.2-0.4-1.6,0l-3.5,3.4l1.6,1.6L26.8,7.4z M50.2,13.8h-7v2.3H49v11.5h-8.2v2.3h9.3c0.6,0,1.2-0.5,1.2-1.1V14.9
			C51.3,14.3,50.8,13.8,50.2,13.8z M7,16.1h5.8v-2.3h-7c-0.6,0-1.2,0.5-1.2,1.1v13.8c0,0.6,0.5,1.1,1.2,1.1h9.3v-2.3H7V16.1z"/>
	</g>
</g>
</svg>
