<?xml version="1.0" encoding="utf-8"?>
<!-- Generator: Adobe Illustrator 18.0.0, SVG Export Plug-In . SVG Version: 6.00 Build 0)  -->
<!DOCTYPE svg PUBLIC "-//W3C//DTD SVG 1.1//EN" "http://www.w3.org/Graphics/SVG/1.1/DTD/svg11.dtd">
<svg version="1.1" id="Layer_1" xmlns="http://www.w3.org/2000/svg" xmlns:xlink="http://www.w3.org/1999/xlink" x="0px" y="0px"
	 viewBox="0 0 46.2 49.1" enable-background="new 0 0 46.2 49.1" xml:space="preserve">
<g>
	<g>
		<path d="M23.1,27.4h4.9c0.7,0,1.2-0.5,1.2-1.2v-4.8c0-0.7-0.5-1.2-1.2-1.2h-4.9c-0.7,0-1.2,0.5-1.2,1.2v4.8
			C21.9,26.9,22.4,27.4,23.1,27.4z M24.3,22.6h2.4V25h-2.4V22.6z M40.1,37.1h-4.9c-0.7,0-1.2,0.5-1.2,1.2v4.8c0,0.7,0.5,1.2,1.2,1.2
			h4.9c0.7,0,1.2-0.5,1.2-1.2v-4.8C41.3,37.6,40.8,37.1,40.1,37.1z M38.9,41.9h-2.4v-2.4h2.4V41.9z M41.3,26.2v-4.8
			c0-0.7-0.5-1.2-1.2-1.2h-3.6v2.4h2.4V25h-2.4v2.4h3.6C40.8,27.4,41.3,26.9,41.3,26.2z M25.5,33.4c0,0.7,0.5,1.2,1.2,1.2h2.4v-2.4
			h-1.2V31c0-0.7-0.5-1.2-1.2-1.2h-4.9v2.4h3.6V33.4z M23.1,44.3h3.6v-2.4h-2.4v-2.4h2.4v-2.4h-3.6c-0.7,0-1.2,0.5-1.2,1.2v4.8
			C21.9,43.8,22.4,44.3,23.1,44.3z M34,20.2h-2.4v2.4H34V20.2z M34,25h-2.4v2.4H34V25z M38.9,34.6h2.4v-4.8h-2.4V34.6z M36.4,29.8
			H34v2.4h2.4V29.8z M34,32.2h-2.4v2.4H34V32.2z M29.1,39.5h2.4v-2.4h-2.4V39.5z M29.1,44.3h2.4v-2.4h-2.4V44.3z M44.9,15.3H29.1
			V5.7c0-0.7-0.5-1.2-1.2-1.2h-9.2l2.8-2.8L19.8,0l-4.9,4.8c-0.5,0.5-0.5,1.2,0,1.7l4.9,4.8l1.7-1.7l-2.8-2.8h8v8.4h-8.5
			c-0.7,0-1.2,0.5-1.2,1.2v31.4c0,0.7,0.5,1.2,1.2,1.2h26.7c0.7,0,1.2-0.5,1.2-1.2V16.5C46.2,15.9,45.6,15.3,44.9,15.3z M43.7,46.7
			H19.4v-29h24.3V46.7z M1.2,22.6h2.4V25h2.4v-2.4h2.4c0.7,0,1.2-0.5,1.2-1.2v-7.2c0-0.7-0.5-1.2-1.2-1.2H2.4V8.1h4.9v2.4h2.4V6.9
			c0-0.7-0.5-1.2-1.2-1.2H6.1V3.3H3.6v2.4H1.2C0.5,5.7,0,6.2,0,6.9v7.2c0,0.7,0.5,1.2,1.2,1.2h6.1v4.8H2.4v-2.4H0v3.6
			C0,22,0.5,22.6,1.2,22.6z M9.4,35l-1.7,1.7l2.8,2.8h-8V28.6H0v12.1c0,0.7,0.5,1.2,1.2,1.2h9.2l-2.8,2.8l1.7,1.7l4.9-4.8
			c0.5-0.5,0.5-1.2,0-1.7L9.4,35z"/>
	</g>
</g>
</svg>
