<?xml version="1.0" encoding="utf-8"?>
<!-- Generator: Adobe Illustrator 18.0.0, SVG Export Plug-In . SVG Version: 6.00 Build 0)  -->
<!DOCTYPE svg PUBLIC "-//W3C//DTD SVG 1.1//EN" "http://www.w3.org/Graphics/SVG/1.1/DTD/svg11.dtd">
<svg version="1.1" id="Layer_1" xmlns="http://www.w3.org/2000/svg" xmlns:xlink="http://www.w3.org/1999/xlink" x="0px" y="0px"
	 viewBox="0 0 55.9 54" enable-background="new 0 0 55.9 54" xml:space="preserve">
<g>
	<g>
		<path d="M7.2,4.5L7.2,4.5c-0.8,0-1.4,0.6-1.4,1.3c0,0.7,0.6,1.3,1.3,1.3h0.1c0.7,0,1.3-0.6,1.3-1.3C8.5,5.1,7.9,4.5,7.2,4.5z
			 M19.4,4.5L19.4,4.5c-0.8,0-1.4,0.6-1.4,1.3c0,0.7,0.6,1.3,1.3,1.3h0.1c0.7,0,1.3-0.6,1.3-1.3C20.7,5.1,20.1,4.5,19.4,4.5z
			 M13.3,4.5L13.3,4.5c-0.8,0-1.4,0.6-1.4,1.3c0,0.7,0.6,1.3,1.3,1.3h0.1c0.7,0,1.3-0.6,1.3-1.3C14.6,5.1,14,4.5,13.3,4.5z M35,40
			H2.6V11.6H47v15.2c0,0.7,0.6,1.3,1.3,1.3s1.3-0.6,1.3-1.3V9h0V0H0v42.5h35c0.7,0,1.3-0.6,1.3-1.3S35.7,40,35,40z M2.6,2.6H47V9
			H2.6V2.6z M8.7,32.1c0,0.5,0.3,0.9,0.7,1.1L21,38.8c0.2,0.1,0.4,0.1,0.6,0.1c0.2,0,0.4-0.1,0.5-0.1c0,0,0,0,0,0l11.6-5.5
			c0.4-0.2,0.7-0.7,0.7-1.1V19.8c0,0,0,0,0,0c0-0.5-0.3-0.9-0.7-1.1l-11.6-5.5c-0.4-0.2-0.8-0.2-1.1,0L9.4,18.6c0,0-0.1,0-0.1,0.1
			c0,0,0,0,0,0c0,0,0,0,0,0c-0.1,0-0.1,0.1-0.2,0.2c0,0,0,0-0.1,0.1c-0.1,0.1-0.1,0.1-0.1,0.2c0,0,0,0.1,0,0.1
			c0,0.1-0.1,0.1-0.1,0.2c0,0.1,0,0.2,0,0.2c0,0,0,0.1,0,0.1c0,0,0,0,0,0c0,0,0,0,0,0V32.1z M31.9,31.3l-9,4.3v-9.5l6.3-3l2.8-1.3
			V31.3z M30.2,19.8l-1.7,0.8l-6.9,3.3l-2.8-1.3l8.6-4.1L30.2,19.8z M21.6,15.7l2.8,1.3l-8.6,4.1L13,19.8L21.6,15.7z M11.3,21.8
			l9,4.3v9.5l-9-4.3V21.8z M17.9,26.8l-3.4-1.6c-0.6-0.3-1.4,0-1.7,0.6c-0.3,0.6,0,1.4,0.6,1.7l3.4,1.6c0.2,0.1,0.4,0.1,0.6,0.1
			c0.5,0,0.9-0.3,1.2-0.7C18.8,27.9,18.5,27.1,17.9,26.8z M55.5,39.2L40.8,24.4c-0.4-0.4-0.9-0.5-1.4-0.3c-0.5,0.2-0.8,0.7-0.8,1.2
			L38.6,46c0,0.5,0.3,1,0.8,1.2c0.2,0.1,0.3,0.1,0.5,0.1c0.3,0,0.6-0.1,0.9-0.3l4.9-4.5l4.7,10.7c0.2,0.5,0.7,0.8,1.2,0.8
			c0.2,0,0.3,0,0.5-0.1c0.7-0.3,1-1,0.7-1.7l-4.7-10.6l6.6-0.2c0.5,0,1-0.3,1.2-0.8C56,40.1,55.9,39.5,55.5,39.2z M46.1,39.1
			c-0.3,0-0.6,0.1-0.8,0.3l-4,3.7l0-14.7l10.4,10.4L46.1,39.1z"/>
	</g>
</g>
</svg>
