<svg width="560" height="366" viewBox="0 0 560 366" fill="none" xmlns="http://www.w3.org/2000/svg">
<g filter="url(#filter0_d_2043_7285)">
<rect x="5" y="4" width="550" height="356" rx="8" fill="white"/>
<rect x="5.5" y="4.5" width="549" height="355" rx="7.5" stroke="#E4E4E7"/>
</g>
<rect x="375" y="302" width="156" height="34" rx="6" fill="#2271B1"/>
<path d="M463.01 312.643C462.192 312.643 449.549 312.643 447.73 312.643C447.73 312.202 447.639 311.848 447.639 311.407C447.548 310.259 446.639 309.375 445.456 309.11C444.638 308.934 443.819 309.022 443 309.022C442.364 309.022 442 309.375 442 309.905C442 310.435 442.455 310.788 443 310.788C443.546 310.788 444.092 310.788 444.638 310.788C445.365 310.788 445.729 311.053 445.729 311.848C445.911 314.763 446.184 317.766 446.366 320.68C446.457 322.27 447.639 323.241 449.276 323.33C450.823 323.33 452.46 323.33 454.006 323.33C455.643 323.33 457.28 323.33 458.917 323.33C460.1 323.33 461.191 322.623 461.555 321.475C462.374 318.914 463.101 316.352 463.92 313.791C464.193 313.173 463.738 312.731 463.01 312.643Z" fill="white"/>
<path d="M455.462 317.147C455.189 316.794 455.007 316.529 454.734 316.264C454.37 315.822 454.461 315.293 454.825 315.028C455.28 314.674 455.734 314.763 456.189 315.204C456.826 315.999 457.372 316.706 457.917 317.5C458.19 317.854 458.19 318.207 457.917 318.56C457.372 319.355 456.735 320.062 456.189 320.857C455.825 321.298 455.28 321.386 454.916 321.122C454.461 320.857 454.461 320.327 454.734 319.797C454.916 319.532 455.189 319.267 455.371 319.002C455.28 318.914 455.098 318.914 455.007 318.914C453.824 318.914 452.551 318.914 451.369 318.914C450.732 318.914 450.277 318.472 450.277 318.03C450.277 317.5 450.641 317.147 451.369 317.147C452.551 317.147 453.824 317.147 455.007 317.147C455.189 317.147 455.28 317.147 455.462 317.147Z" fill="#2271B1"/>
<path d="M450.459 324.743C451.459 324.831 452.278 325.626 452.369 326.597C452.551 328.01 451.368 329.159 449.913 328.982C448.912 328.894 448.094 328.099 448.003 327.127C447.73 325.714 449.003 324.566 450.459 324.743Z" fill="white"/>
<path d="M457.917 328.982C456.461 329.158 455.188 328.01 455.37 326.509C455.552 325.537 456.279 324.831 457.28 324.654C458.735 324.478 459.918 325.626 459.736 327.039C459.645 328.099 458.917 328.805 457.917 328.982Z" fill="white"/>
<rect x="254" y="302" width="111" height="34" rx="6" fill="#F2F6FA"/>
<path d="M314.561 323H303.433C301.539 323 300 321.207 300 319C300 316.793 301.539 315 303.433 315H314.561C316.455 315 317.994 316.793 317.994 319C318.112 321.207 316.455 323 314.561 323Z" fill="#BCD3E4"/>
<path d="M272.835 320H263.165C262.583 320 262 319.4 262 318.5C262 317.75 262.466 317 263.165 317H272.835C273.417 317 274 317.6 274 318.5C274 319.4 273.534 320 272.835 320Z" fill="#BDD2E3"/>
<path d="M352.835 320.107H343.165C342.583 320.107 342 319.641 342 318.942C342 318.359 342.466 317.777 343.165 317.777H352.835C353.417 317.777 354 318.243 354 318.942C354 319.641 353.534 320.107 352.835 320.107Z" fill="#BDD2E3"/>
<path d="M348.058 325C347.476 325 346.893 324.534 346.893 323.835V314.165C346.893 313.583 347.359 313 348.058 313C348.641 313 349.223 313.466 349.223 314.165V323.835C349.223 324.417 348.641 325 348.058 325Z" fill="#BDD2E3"/>
<path d="M254.529 276.186C254.529 275.799 254.787 275.528 255.136 275.528C255.413 275.528 255.626 275.657 255.904 276.006C256.381 276.638 257.046 276.954 257.898 276.954C259.015 276.954 259.673 276.49 259.673 275.683C259.673 275.025 259.234 274.612 258.266 274.367L256.872 274.005C255.4 273.644 254.665 272.85 254.665 271.624C254.665 270.049 255.917 269.016 257.808 269.016C258.802 269.016 259.686 269.3 260.254 269.817C260.667 270.191 260.899 270.623 260.899 271.036C260.899 271.398 260.654 271.643 260.292 271.643C260.021 271.643 259.821 271.527 259.66 271.269C259.311 270.623 258.66 270.243 257.834 270.243C256.82 270.243 256.162 270.739 256.162 271.514C256.162 272.108 256.582 272.534 257.401 272.74L258.789 273.089C260.389 273.489 261.125 274.25 261.125 275.522C261.125 277.161 259.841 278.187 257.821 278.187C256.724 278.187 255.755 277.884 255.188 277.361C254.755 276.967 254.529 276.561 254.529 276.186ZM262.48 269.462C262.48 268.997 262.848 268.661 263.326 268.661C263.823 268.661 264.184 268.997 264.184 269.462C264.184 269.933 263.823 270.275 263.326 270.275C262.848 270.275 262.48 269.933 262.48 269.462ZM264.049 277.271C264.049 277.8 263.765 278.065 263.332 278.065C262.9 278.065 262.616 277.793 262.616 277.271V271.914C262.616 271.385 262.906 271.12 263.332 271.12C263.765 271.12 264.049 271.391 264.049 271.914V277.271ZM265.668 277.335C265.668 277.058 265.785 276.825 266.036 276.516L269.108 272.437V272.359H266.269C265.849 272.359 265.623 272.101 265.623 271.759C265.623 271.417 265.849 271.165 266.269 271.165H270.025C270.528 271.165 270.812 271.436 270.812 271.837C270.812 272.121 270.702 272.353 270.451 272.669L267.398 276.754V276.825H270.315C270.728 276.825 270.961 277.077 270.961 277.406C270.961 277.761 270.728 278.019 270.315 278.019H266.469C265.952 278.019 265.668 277.735 265.668 277.335ZM272.019 275.083V274.115C272.019 272.295 273.226 271.049 274.988 271.049C276.672 271.049 277.866 272.263 277.866 273.941C277.866 274.696 277.685 274.928 277.118 274.928H273.478V275.251C273.478 276.303 274.136 276.974 275.214 276.974C275.762 276.974 276.169 276.819 276.498 276.522C276.834 276.238 276.937 276.167 277.163 276.167C277.473 276.167 277.685 276.393 277.685 276.722C277.685 276.974 277.531 277.245 277.266 277.458C276.827 277.877 276.027 278.129 275.13 278.129C273.207 278.129 272.019 276.98 272.019 275.083ZM273.478 273.928H276.479V273.908C276.479 272.869 275.904 272.198 275.007 272.198C274.084 272.198 273.478 272.889 273.478 273.908V273.928ZM279.363 272.772C279.363 272.288 279.757 271.888 280.248 271.888C280.732 271.888 281.132 272.288 281.132 272.772C281.132 273.256 280.732 273.657 280.248 273.657C279.757 273.657 279.363 273.256 279.363 272.772ZM279.363 277.245C279.363 276.761 279.757 276.361 280.248 276.361C280.732 276.361 281.132 276.761 281.132 277.245C281.132 277.735 280.732 278.136 280.248 278.136C279.757 278.136 279.363 277.735 279.363 277.245Z" fill="#3A4C5B"/>
<rect x="301.5" y="262.5" width="33" height="23" rx="3.5" fill="white"/>
<rect x="301.5" y="262.5" width="33" height="23" rx="3.5" stroke="#E4E4E7"/>
<path d="M315.362 276.068C315.362 275.758 315.568 275.541 315.847 275.541C316.069 275.541 316.239 275.644 316.461 275.923C316.843 276.429 317.375 276.682 318.057 276.682C318.95 276.682 319.477 276.31 319.477 275.665C319.477 275.138 319.126 274.808 318.351 274.612L317.236 274.323C316.059 274.033 315.47 273.398 315.47 272.417C315.47 271.158 316.472 270.332 317.985 270.332C318.78 270.332 319.487 270.559 319.941 270.972C320.272 271.271 320.458 271.617 320.458 271.948C320.458 272.237 320.261 272.433 319.972 272.433C319.755 272.433 319.595 272.34 319.466 272.133C319.188 271.617 318.666 271.313 318.005 271.313C317.195 271.313 316.668 271.71 316.668 272.33C316.668 272.805 317.004 273.145 317.659 273.311L318.769 273.589C320.05 273.91 320.638 274.519 320.638 275.536C320.638 276.847 319.611 277.668 317.995 277.668C317.117 277.668 316.343 277.426 315.888 277.007C315.542 276.692 315.362 276.367 315.362 276.068Z" fill="#171719"/>
<rect x="343.5" y="262.5" width="33" height="23" rx="3.5" fill="white"/>
<rect x="343.5" y="262.5" width="33" height="23" rx="3.5" stroke="#E4E4E7"/>
<path d="M357.181 277.581C356.835 277.581 356.654 277.369 356.654 276.956V271.173C356.654 270.698 356.907 270.419 357.325 270.419C357.692 270.419 357.899 270.585 358.115 271.142L359.984 275.665H360.026L361.89 271.137C362.106 270.579 362.303 270.419 362.685 270.419C363.103 270.419 363.346 270.693 363.346 271.173V276.956C363.346 277.364 363.16 277.581 362.809 277.581C362.468 277.581 362.292 277.369 362.292 276.956V272.624H362.246L360.676 276.388C360.485 276.847 360.299 276.992 360.005 276.992C359.706 276.992 359.515 276.842 359.329 276.388L357.759 272.624H357.713V276.956C357.713 277.364 357.527 277.581 357.181 277.581Z" fill="#171719"/>
<rect x="385.5" y="262.5" width="33" height="23" rx="3.5" fill="white"/>
<rect x="385.5" y="262.5" width="33" height="23" rx="3.5" stroke="#E4E4E7"/>
<path d="M404.174 277.043C404.174 277.348 403.952 277.549 403.626 277.549H400.714C400.105 277.549 399.826 277.291 399.826 276.713V271.09C399.826 270.688 400.043 270.45 400.415 270.45C400.782 270.45 400.998 270.688 400.998 271.09V276.532H403.626C403.952 276.532 404.174 276.739 404.174 277.043Z" fill="#171719"/>
<rect x="427.5" y="262.5" width="33" height="23" rx="3.5" fill="white"/>
<rect x="427.5" y="262.5" width="33" height="23" rx="3.5" stroke="#E4E4E7"/>
<path d="M438.558 277.054C438.558 276.914 438.615 276.796 438.77 276.574L440.556 273.982L438.79 271.431C438.646 271.23 438.589 271.096 438.589 270.951C438.589 270.636 438.832 270.414 439.178 270.414C439.415 270.414 439.539 270.512 439.797 270.889L441.295 273.171H441.351L442.833 270.889C443.076 270.517 443.205 270.414 443.437 270.414C443.773 270.414 444.005 270.641 444.005 270.951C444.005 271.085 443.959 271.204 443.799 271.426L441.981 274.044L443.814 276.568C443.964 276.775 444.021 276.909 444.021 277.054C444.021 277.364 443.773 277.586 443.427 277.586C443.195 277.586 443.081 277.498 442.807 277.111L441.279 274.88H441.222L439.735 277.111C439.477 277.493 439.358 277.586 439.131 277.586C438.796 277.586 438.558 277.358 438.558 277.054Z" fill="#171719"/>
<path d="M449.442 277.028C449.442 277.333 449.22 277.534 448.895 277.534H445.983C445.373 277.534 445.095 277.276 445.095 276.697V271.075C445.095 270.672 445.311 270.435 445.683 270.435C446.05 270.435 446.267 270.672 446.267 271.075V276.517H448.895C449.22 276.517 449.442 276.723 449.442 277.028Z" fill="#171719"/>
<path d="M254.658 236.212V234.953C254.658 232.481 255.962 231.016 258.227 231.016C259.324 231.016 260.221 231.352 260.847 231.984C261.28 232.417 261.551 232.965 261.551 233.353C261.551 233.733 261.299 233.972 260.931 233.972C260.647 233.972 260.46 233.862 260.228 233.52C259.718 232.681 259.124 232.294 258.298 232.294C256.904 232.294 256.117 233.275 256.117 234.998V236.173C256.117 237.935 256.898 238.909 258.298 238.909C259.137 238.909 259.776 238.529 260.254 237.709C260.486 237.373 260.654 237.251 260.925 237.251C261.312 237.251 261.551 237.496 261.551 237.87C261.551 238.303 261.248 238.877 260.764 239.309C260.15 239.877 259.292 240.187 258.227 240.187C255.949 240.187 254.658 238.735 254.658 236.212ZM265.843 233.049C267.618 233.049 268.889 234.185 268.889 236.121V237.038C268.889 239.006 267.618 240.129 265.843 240.129C264.061 240.129 262.79 239.006 262.79 237.038V236.128C262.79 234.185 264.061 233.049 265.843 233.049ZM265.843 234.211C264.868 234.211 264.255 234.979 264.255 236.192V236.986C264.255 238.219 264.868 238.974 265.843 238.974C266.824 238.974 267.417 238.219 267.417 236.986V236.192C267.417 234.979 266.824 234.211 265.843 234.211ZM271.18 240.065C270.754 240.065 270.47 239.8 270.47 239.271V231.475C270.47 230.945 270.754 230.681 271.18 230.681C271.612 230.681 271.903 230.945 271.903 231.475V239.271C271.903 239.8 271.612 240.065 271.18 240.065ZM276.53 233.049C278.305 233.049 279.576 234.185 279.576 236.121V237.038C279.576 239.006 278.305 240.129 276.53 240.129C274.749 240.129 273.478 239.006 273.478 237.038V236.128C273.478 234.185 274.749 233.049 276.53 233.049ZM276.53 234.211C275.556 234.211 274.943 234.979 274.943 236.192V236.986C274.943 238.219 275.556 238.974 276.53 238.974C277.511 238.974 278.105 238.219 278.105 236.986V236.192C278.105 234.979 277.511 234.211 276.53 234.211ZM282.545 239.271C282.545 239.774 282.281 240.065 281.822 240.065C281.364 240.065 281.112 239.774 281.112 239.271V233.914C281.112 233.411 281.377 233.12 281.829 233.12C282.255 233.12 282.5 233.385 282.519 233.843V234.05H282.571C282.881 233.404 283.397 233.075 284.03 233.075C284.255 233.075 284.443 233.127 284.572 233.23C284.727 233.333 284.81 233.507 284.81 233.72C284.81 233.946 284.733 234.108 284.578 234.211C284.449 234.301 284.262 234.34 284.017 234.346C283.042 234.359 282.545 234.889 282.545 235.96V239.271ZM285.817 234.772C285.817 234.288 286.211 233.888 286.701 233.888C287.185 233.888 287.586 234.288 287.586 234.772C287.586 235.256 287.185 235.657 286.701 235.657C286.211 235.657 285.817 235.256 285.817 234.772ZM285.817 239.245C285.817 238.761 286.211 238.361 286.701 238.361C287.185 238.361 287.586 238.761 287.586 239.245C287.586 239.735 287.185 240.136 286.701 240.136C286.211 240.136 285.817 239.735 285.817 239.245Z" fill="#3A4C5B"/>
<path d="M312.969 246.939C319.58 246.939 324.939 241.58 324.939 234.969C324.939 228.359 319.58 223 312.969 223C306.359 223 301 228.359 301 234.969C301 241.58 306.359 246.939 312.969 246.939Z" fill="#FE7AB6"/>
<path d="M346.908 246.939C353.519 246.939 358.877 241.58 358.877 234.969C358.877 228.359 353.519 223 346.908 223C340.298 223 334.939 228.359 334.939 234.969C334.939 241.58 340.298 246.939 346.908 246.939Z" fill="#448AFC"/>
<g opacity="0.6">
<path d="M380.847 246.939C387.457 246.939 392.816 241.58 392.816 234.969C392.816 228.359 387.457 223 380.847 223C374.236 223 368.877 228.359 368.877 234.969C368.877 241.58 374.236 246.939 380.847 246.939Z" fill="#FFEB99"/>
<path d="M385.834 230.481L376.358 239.957" stroke="#FF6B4B" stroke-width="2"/>
</g>
<path d="M414.785 246.939C421.396 246.939 426.755 241.58 426.755 234.969C426.755 228.359 421.396 223 414.785 223C408.175 223 402.816 228.359 402.816 234.969C402.816 241.58 408.175 246.939 414.785 246.939Z" fill="#A87BFF"/>
<rect x="254" y="78" width="180" height="10" rx="5" fill="#EAF1F5"/>
<rect x="254" y="58" width="271" height="10" rx="5" fill="#EAF1F5"/>
<rect x="254" y="28" width="125" height="20" rx="10" fill="#DDEAF2"/>
<path d="M34.1054 229.5H218.895C221.634 229.5 224 227.182 224 224.221V33.2789C224 30.4463 221.759 28 218.895 28H34.1054C31.3659 28 29 30.3176 29 33.2789V224.35C29.1245 227.182 31.3659 229.5 34.1054 229.5Z" fill="#F5F8FB"/>
<path d="M142.859 69.2539C140.654 70.5561 134.731 73.503 126.534 73.503L115.719 84.7427L128.531 93.9948C128.531 93.9948 144.305 86.7987 142.859 69.2539Z" fill="#C9CEE2"/>
<path d="M126.534 73.503C118.337 73.503 112.344 70.5561 110.208 69.2539V79.6026L119.645 83.9888C127.911 80.6992 126.534 73.503 126.534 73.503Z" fill="#C9CEE2"/>
<path d="M64.4708 114.351C63.3687 116.818 62.4043 119.08 61.6466 120.93C61.3022 121.752 61.5777 122.643 62.3354 123.123C67.2949 126.344 79.4183 132.992 92.3681 132.649L97.9476 119.285L64.4708 114.351Z" fill="#B0B8CF"/>
<path d="M191.352 120.861C190.594 119.011 189.63 116.749 188.527 114.282L154.706 120.244L160.699 132.58C173.649 132.855 185.772 126.275 190.732 123.054C191.421 122.574 191.696 121.683 191.352 120.861Z" fill="#B0B8CF"/>
<path d="M80.8649 80.2192C80.8649 80.2192 76.8009 83.4403 74.8033 90.3623C73.6323 94.4058 68.3972 105.577 64.4709 114.349C69.2238 117.433 80.4515 123.533 92.6437 123.533L99.463 99.0662L80.8649 80.2192Z" fill="#C9CEE2"/>
<path d="M178.195 90.3623C176.198 83.4403 172.134 80.2192 172.134 80.2192C172.134 80.2192 156.291 85.0166 154.844 97.6955C153.467 110.306 160.355 123.533 160.355 123.533C172.478 123.533 183.775 117.433 188.528 114.349C184.67 105.577 179.435 94.4058 178.195 90.3623Z" fill="#C9CEE2"/>
<path d="M103.872 70.4888C88.373 76.0401 80.9337 80.2207 80.9337 80.2207C86.0999 87.7595 89.3374 96.8745 91.0594 103.111L112.62 81.797L103.872 70.4888Z" fill="#C9CEE2"/>
<path d="M158.908 186.174C161.388 185.9 163.248 183.775 163.041 181.308C161.939 162.735 160.493 136.075 160.217 116.2C160.148 111.814 160.699 107.428 161.939 103.179C163.455 81.3847 146.096 73.9829 146.096 73.9829L128.462 91.5277L119.577 89.1976L108.004 79.6027C103.389 81.6588 92.7127 88.0325 91.0595 103.179C92.2305 107.496 92.8504 111.882 92.7815 116.337C92.506 136.281 91.1284 162.941 89.9574 181.445C89.8196 183.912 91.6105 186.037 94.0214 186.311C103.389 187.407 127.154 189.326 158.908 186.174Z" fill="#E3E7F0"/>
<path d="M172.134 80.2207C172.134 80.2207 164.626 76.0401 149.196 70.4888L145.063 72.6133V79.5353C149.678 81.5914 160.355 87.9651 162.008 103.111C163.73 96.8745 166.968 87.7595 172.134 80.2207Z" fill="#C9CEE2"/>
<path d="M147.267 69.8025C146.51 69.5284 145.821 69.1172 145.27 68.6375C144.374 67.9521 143.134 68.3633 142.79 69.3913C140.999 74.6685 137.004 82.8241 128.049 87.7586C127.085 88.3068 125.983 88.3068 125.018 87.7586C122.952 86.5935 121.161 85.2913 119.577 83.9207C114.342 79.1918 111.586 73.4348 110.278 69.3913C109.933 68.3633 108.693 67.9521 107.798 68.6375C107.178 69.1172 106.489 69.5284 105.8 69.8025C105.18 70.0081 104.492 70.2823 103.872 70.4879C104.354 71.5159 104.836 72.5439 105.249 73.6405C106.971 78.0952 109.727 83.2353 114.204 87.6901C116.89 90.3629 120.197 92.8301 124.192 94.7491C125.638 95.4344 127.36 95.4344 128.807 94.7491C139.621 89.5404 145.063 80.768 147.818 73.6405C148.232 72.5439 148.714 71.5159 149.196 70.4879C148.576 70.2823 147.887 70.0767 147.267 69.8025Z" fill="#B0B8CF"/>
<path d="M83.8722 297.024H33.9278C31.131 297.024 29 294.76 29 292.096V242.152C29 239.355 31.2641 237.224 33.9278 237.224H83.8722C86.669 237.224 88.8 239.488 88.8 242.152V292.096C88.8 294.893 86.5359 297.024 83.8722 297.024Z" fill="#F5F8FB"/>
<path d="M151.472 297.024H101.528C98.7311 297.024 96.6001 294.76 96.6001 292.096V242.152C96.6001 239.355 98.8642 237.224 101.528 237.224H151.472C154.269 237.224 156.4 239.488 156.4 242.152V292.096C156.4 294.893 154.136 297.024 151.472 297.024Z" fill="#F5F8FB"/>
<path d="M219.072 297.101H169.128C166.331 297.101 164.2 294.837 164.2 292.173V242.229C164.2 239.432 166.464 237.301 169.128 237.301H219.072C221.869 237.301 224 239.565 224 242.229V292.173C224 294.97 221.736 297.101 219.072 297.101Z" fill="#F5F8FB"/>
<defs>
<filter id="filter0_d_2043_7285" x="0" y="0" width="560" height="366" filterUnits="userSpaceOnUse" color-interpolation-filters="sRGB">
<feFlood flood-opacity="0" result="BackgroundImageFix"/>
<feColorMatrix in="SourceAlpha" type="matrix" values="0 0 0 0 0 0 0 0 0 0 0 0 0 0 0 0 0 0 127 0" result="hardAlpha"/>
<feOffset dy="1"/>
<feGaussianBlur stdDeviation="2.5"/>
<feComposite in2="hardAlpha" operator="out"/>
<feColorMatrix type="matrix" values="0 0 0 0 0 0 0 0 0 0 0 0 0 0 0 0 0 0 0.05 0"/>
<feBlend mode="normal" in2="BackgroundImageFix" result="effect1_dropShadow_2043_7285"/>
<feBlend mode="normal" in="SourceGraphic" in2="effect1_dropShadow_2043_7285" result="shape"/>
</filter>
</defs>
</svg>
