<svg width="640" height="480" viewBox="0 0 640 480" fill="none" xmlns="http://www.w3.org/2000/svg">
<g clip-path="url(#clip0_2864_34652)">
<path d="M640 480H0V0H640V480Z" fill="#F7931A"/>
<path d="M455.3 204.7C461 166.9 432.2 146.5 392.8 133L405.6 81.8L374.3 74L361.9 123.9C353.7 121.9 345.3 119.9 336.9 118L349.4 67.8L318.3 60L305.5 111.2C298.7 109.7 292 108.1 285.6 106.5V106.3L242.6 95.6L234.3 128.9C234.3 128.9 257.4 134.2 257 134.5C269.6 137.7 271.9 146 271.5 152.6L256.9 211C257.8 211.2 258.9 211.5 260.1 212C259.1 211.7 258 211.5 256.8 211.2L236.4 293C234.9 296.8 230.9 302.6 222.1 300.4C222.4 300.9 199.4 294.7 199.4 294.7L184 330.6L224.6 340.7C232.2 342.6 239.6 344.6 246.8 346.4L233.9 398.2L265.1 406L277.9 354.7C286.4 357 294.7 359.1 302.8 361.1L290.1 412.1L321.3 419.9L334.2 368.2C387.4 378.3 427.4 374.2 444.2 326.1C457.8 287.4 443.5 265 415.5 250.5C435.8 245.8 451.2 232.4 455.3 204.7ZM384 304.7C374.4 343.4 309.1 322.5 288 317.2L305.1 248.5C326.3 253.8 394.1 264.3 384 304.7ZM393.7 204.2C384.9 239.4 330.6 221.5 313 217.1L328.5 154.8C346.1 159.2 402.8 167.4 393.7 204.2Z" fill="white"/>
</g>
<defs>
<clipPath id="clip0_2864_34652">
<rect width="640" height="480" fill="white"/>
</clipPath>
</defs>
</svg>
