<svg width="640" height="480" viewBox="0 0 640 480" fill="none" xmlns="http://www.w3.org/2000/svg">
<g clip-path="url(#clip0_2864_34687)">
<path d="M0 0H640V480H0V0Z" fill="#003399"/>
<path d="M320 280.2C336.789 280.2 350.4 266.59 350.4 249.8C350.4 233.011 336.789 219.4 320 219.4C303.21 219.4 289.6 233.011 289.6 249.8C289.6 266.59 303.21 280.2 320 280.2Z" stroke="#FFCC00" stroke-width="27.5"/>
<path d="M320 338.1C368.767 338.1 408.3 298.567 408.3 249.8C408.3 201.033 368.767 161.5 320 161.5C271.233 161.5 231.7 201.033 231.7 249.8C231.7 298.567 271.233 338.1 320 338.1Z" stroke="#FFCC00" stroke-width="27.5"/>
<path d="M404.7 165.1L489.4 249.8L404.7 334.5L320 249.8L404.7 165.1Z" fill="#003399"/>
<path d="M175.7 236.1H234.9V263.6H175.7V236.1ZM434.8 236.1H523.1V263.6H434.8V236.1ZM363 187.4L401.8 148.6L421.2 168.1L382.5 206.8L363 187.4ZM306.3 48.5996H333.8V155.7H306.3V48.5996Z" fill="#FFCC00"/>
<path d="M225.1 173.3C232.667 173.3 238.8 167.167 238.8 159.6C238.8 152.034 232.667 145.9 225.1 145.9C217.534 145.9 211.4 152.034 211.4 159.6C211.4 167.167 217.534 173.3 225.1 173.3Z" fill="#FFCC00"/>
<path d="M144.3 263.5C151.866 263.5 158 257.366 158 249.8C158 242.233 151.866 236.1 144.3 236.1C136.733 236.1 130.6 242.233 130.6 249.8C130.6 257.366 136.733 263.5 144.3 263.5Z" fill="#FFCC00"/>
<path d="M320 395.099C327.566 395.099 333.7 388.966 333.7 381.399C333.7 373.833 327.566 367.699 320 367.699C312.434 367.699 306.3 373.833 306.3 381.399C306.3 388.966 312.434 395.099 320 395.099Z" fill="#FFCC00"/>
<path d="M320 439.201C327.566 439.201 333.7 433.067 333.7 425.501C333.7 417.934 327.566 411.801 320 411.801C312.434 411.801 306.3 417.934 306.3 425.501C306.3 433.067 312.434 439.201 320 439.201Z" fill="#FFCC00"/>
<path d="M408.3 263.5C415.866 263.5 422 257.366 422 249.8C422 242.233 415.866 236.1 408.3 236.1C400.733 236.1 394.6 242.233 394.6 249.8C394.6 257.366 400.733 263.5 408.3 263.5Z" fill="#FFCC00"/>
<path d="M208.3 341.5L227.8 322.1L247.2 341.5L227.8 361L208.3 341.5ZM413 362.5L432.5 343L452 362.5L432.5 381.9L413 362.5Z" fill="#FFCC00"/>
</g>
<defs>
<clipPath id="clip0_2864_34687">
<rect width="640" height="480" fill="white"/>
</clipPath>
</defs>
</svg>
