<svg width="640" height="480" viewBox="0 0 640 480" fill="none" xmlns="http://www.w3.org/2000/svg">
<g clip-path="url(#clip0_2864_34730)">
<path d="M0 0H213.3V480H0V0Z" fill="#007A5E"/>
<path d="M213.3 0H426.7V480H213.3V0Z" fill="#CE1126"/>
<path d="M426.7 0H640V480H426.7V0Z" fill="#FCD116"/>
<path d="M320 183.111L302.223 237.156L329.245 246.4L320 183.111Z" fill="#FCD116"/>
<path d="M320.001 183.111L337.778 237.156L310.756 246.4L320.001 183.111Z" fill="#FCD116"/>
<path d="M374.105 222.421L317.212 222.214L316.77 250.771L374.105 222.421Z" fill="#FCD116"/>
<path d="M374.105 222.42L328.199 256.029L311.057 233.186L374.105 222.42Z" fill="#FCD116"/>
<path d="M353.439 286.024L336.055 231.851L308.76 240.256L353.439 286.024Z" fill="#FCD116"/>
<path d="M353.439 286.023L307.29 252.75L323.718 229.388L353.439 286.023Z" fill="#FCD116"/>
<path d="M286.562 286.023L332.711 252.75L316.283 229.388L286.562 286.023Z" fill="#FCD116"/>
<path d="M286.562 286.024L303.946 231.851L331.241 240.256L286.562 286.024Z" fill="#FCD116"/>
<path d="M265.896 222.42L311.802 256.029L328.944 233.186L265.896 222.42Z" fill="#FCD116"/>
<path d="M265.896 222.421L322.789 222.214L323.231 250.771L265.896 222.421Z" fill="#FCD116"/>
</g>
<defs>
<clipPath id="clip0_2864_34730">
<rect width="640" height="480" fill="white"/>
</clipPath>
</defs>
</svg>
