<svg width="640" height="480" viewBox="0 0 640 480" fill="none" xmlns="http://www.w3.org/2000/svg">
<g clip-path="url(#clip0_2864_34711)">
<path d="M0 0H220V480H0V0Z" fill="#CE1126"/>
<path d="M220 0H640V240H220V0Z" fill="#FCD116"/>
<path d="M220 240H640V480H220V240Z" fill="#009E49"/>
<path d="M110 160L85.2786 236.085L123.321 248.445" fill="#000001"/>
<path d="M110 160L134.721 236.085L96.6791 248.445" fill="#000001"/>
<path d="M186.085 215.279H106.085V255.279" fill="#000001"/>
<path d="M186.085 215.279L121.364 262.302L97.8522 229.941" fill="#000001"/>
<path d="M157.022 304.721L132.301 228.636L94.2588 240.997" fill="#000001"/>
<path d="M157.022 304.721L92.3011 257.698L115.813 225.337" fill="#000001"/>
<path d="M62.9775 304.723L127.699 257.7L104.187 225.339" fill="#000001"/>
<path d="M62.9775 304.723L87.6989 228.638L125.741 240.999" fill="#000001"/>
<path d="M33.916 215.277L98.6374 262.3L122.149 229.939" fill="#000001"/>
<path d="M33.916 215.277H113.916V255.277" fill="#000001"/>
</g>
<defs>
<clipPath id="clip0_2864_34711">
<rect width="640" height="480" fill="white"/>
</clipPath>
</defs>
</svg>
