<svg width="640" height="480" viewBox="0 0 640 480" fill="none" xmlns="http://www.w3.org/2000/svg">
<g clip-path="url(#clip0_2864_34849)">
<path d="M0 0H640V480H0" fill="#EC1B2E"/>
<path d="M346.3 103.099C267 97.9992 230.6 201.899 305.6 240.299C279.6 217.899 285 184.999 295.5 167.899L297.4 168.999C283.6 192.499 286.2 221.699 308.5 239.999C295.8 227.699 299 200.999 320.6 191.099C342.2 181.199 344.2 151.799 337 141.999C327.2 124.933 330.3 111.966 346.3 103.099ZM307.9 163.999L303.2 171.399L301.4 162.799L292.8 160.499L300.6 156.199L300 147.299L306.5 153.399L314.8 150.099L311.1 158.199L316.7 164.999L307.9 163.999Z" fill="white"/>
<path d="M456.473 232.26C436.818 155.265 326.755 152.754 313.411 235.949C326.68 204.3 359.639 199.269 379.146 203.971L378.687 206.118C352.073 200.255 325.106 211.751 314.592 238.614C322.366 222.735 348.748 217.528 364.838 235.011C380.928 252.495 409.508 245.312 416.603 235.436C429.806 220.842 443.096 219.783 456.473 232.26ZM386.687 214.559L378.197 212.375L385.82 208.006L385.35 199.116L391.85 205.205L400.129 201.885L396.336 209.951L402.039 216.825L393.192 215.81L388.456 223.237L386.687 214.559Z" fill="white"/>
<path d="M367.68 376.954C434.833 334.469 403.21 229.016 319.963 242.034C354.164 244.874 369.133 274.664 370.69 294.67L368.506 294.897C365.857 267.774 346.591 245.679 317.793 243.981C335.297 246.467 348.402 269.949 336.747 290.654C325.091 311.36 340.754 336.32 352.339 340.017C370.299 348.064 375.413 360.376 367.68 376.954ZM362.95 305.114L362.403 296.365L368.914 302.264L377.224 299.07L373.441 307.133L379.157 313.981L370.313 312.867L365.538 320.415L363.77 311.687L355.243 309.477L362.95 305.114Z" fill="white"/>
<path d="M202.63 337.22C263.788 387.957 354.307 325.295 316.202 250.145C324.07 283.55 300.363 306.992 281.817 314.655L280.926 312.648C305.904 301.748 320.964 276.596 313.679 248.683C316.724 266.099 298.441 285.819 275.147 281.132C251.853 276.445 232.954 299.055 233.019 311.215C230.916 330.783 220.786 339.451 202.63 337.22ZM269.493 310.521L277.645 307.297L274.046 315.313L279.652 322.228L270.814 321.123L266.068 328.675L264.395 319.92L255.74 317.711L263.495 313.333L262.961 304.54L269.493 310.521Z" fill="white"/>
<path d="M189.416 167.969C160.061 241.812 247.627 308.537 307.324 249.074C277.986 266.88 248.365 251.578 235.347 236.307L236.98 234.84C255.065 255.227 283.64 261.777 307.935 246.224C292.313 254.501 267.908 243.207 265.168 219.605C262.427 196.003 235.084 185.016 223.539 188.835C204.279 192.881 192.905 185.926 189.416 167.969ZM235.469 223.309L241.055 230.066L232.32 229.12L227.475 236.588L225.795 227.841L217.146 225.662L224.956 221.365L224.382 212.451L230.942 218.473L239.14 215.249L235.469 223.309Z" fill="white"/>
</g>
<defs>
<clipPath id="clip0_2864_34849">
<rect width="640" height="480" fill="white"/>
</clipPath>
</defs>
</svg>
