<svg width="640" height="480" viewBox="0 0 640 480" fill="none" xmlns="http://www.w3.org/2000/svg">
<g clip-path="url(#clip0_2864_34856)">
<mask id="mask0_2864_34856" style="mask-type:luminance" maskUnits="userSpaceOnUse" x="0" y="0" width="640" height="480">
<path d="M0.0625 0H640V480H0.0625V0Z" fill="white"/>
</mask>
<g mask="url(#mask0_2864_34856)">
<path fill-rule="evenodd" clip-rule="evenodd" d="M0.0625 0H960.062V160.031H0.0625V0Z" fill="#000001"/>
<path fill-rule="evenodd" clip-rule="evenodd" d="M0.0625 160.031H960.062V319.969H0.0625V160.031Z" fill="white"/>
<path fill-rule="evenodd" clip-rule="evenodd" d="M0.0625 319.969H960.062V480H0.0625V319.969Z" fill="#009900"/>
<path fill-rule="evenodd" clip-rule="evenodd" d="M0.0625 480L480.062 240L0.0625 0V480Z" fill="#FF0000"/>
<path fill-rule="evenodd" clip-rule="evenodd" d="M133.469 270.938L138.812 247.594H114.906L136.469 237.281L121.562 218.625L143.125 228.938L148.375 205.688L153.719 229.031L175.187 218.625L160.187 237.281L181.75 247.594H157.937L163.281 270.938L148.375 252.188L133.469 270.938Z" fill="white"/>
</g>
</g>
<defs>
<clipPath id="clip0_2864_34856">
<rect width="640" height="480" fill="white"/>
</clipPath>
</defs>
</svg>
