<svg width="640" height="480" viewBox="0 0 640 480" fill="none" xmlns="http://www.w3.org/2000/svg">
<g clip-path="url(#clip0_2864_35047)">
<mask id="mask0_2864_35047" style="mask-type:luminance" maskUnits="userSpaceOnUse" x="0" y="0" width="640" height="480">
<path d="M0.0322266 0H639.968V480H0.0322266V0Z" fill="white"/>
</mask>
<g mask="url(#mask0_2864_35047)">
<path d="M-160 0H800V480H-160V0Z" fill="#239E46"/>
<path d="M-160 0H800V360H-160V0Z" fill="#000001"/>
<path d="M-160 0H800V120H-160V0Z" fill="#E70013"/>
<path d="M362.432 197.568C354.637 192.006 345.461 188.698 335.91 188.008C326.359 187.317 316.802 189.271 308.289 193.655C299.775 198.039 292.634 204.683 287.648 212.858C282.662 221.033 280.024 230.424 280.024 240C280.024 249.576 282.662 258.967 287.648 267.142C292.634 275.317 299.775 281.962 308.289 286.345C316.802 290.729 326.359 292.683 335.91 291.992C345.461 291.302 354.637 287.994 362.432 282.432C354.04 290.822 343.349 296.534 331.71 298.848C320.072 301.162 308.009 299.973 297.046 295.431C286.083 290.89 276.714 283.199 270.121 273.333C263.529 263.466 260.011 251.866 260.011 240C260.011 228.134 263.529 216.534 270.121 206.667C276.714 196.801 286.083 189.11 297.046 184.569C308.009 180.027 320.072 178.838 331.71 181.152C343.349 183.466 354.04 189.178 362.432 197.568ZM349.184 240L429.92 213.792L380 282.432V197.568L429.92 266.208L349.184 240Z" fill="white"/>
</g>
</g>
<defs>
<clipPath id="clip0_2864_35047">
<rect width="640" height="480" fill="white"/>
</clipPath>
</defs>
</svg>
