<svg xmlns="http://www.w3.org/2000/svg" xmlns:xlink="http://www.w3.org/1999/xlink" viewBox="0 0 640 480"><path style="fill:#DE0000;" d="M0,0h640v480H0V0z"/><path style="fill:#009933;" d="M0,165h640v150H0V165z"/><path style="fill:#FFD700;" d="M106.5,20l-4.7,14.5H86.5l12.4,9L94.2,58l12.4-9l12.4,9l-4.7-14.5l12.4-9h-15.3L106.5,20z M106.5,27.5l3,9.3h9.8l-7.9,5.7l3,9.3l-7.9-5.7l-7.9,5.7l3-9.3l-7.9-5.7h9.8L106.5,27.5z"/><g transform="matrix(0.79145503,0,0,0.78939049,-6.9365916,3.0127513)"><path style="fill:#FFD700;" d="M102.7,118.1l12.6,12.7l11.9-11.8c18,19.3,37,38,54.9,57.4c2.7,2.7,7.1,2.7,9.8,0c2.7-2.7,2.7-7.1,0-9.8c-19.2-18.1-38.5-36.4-57.7-54.6l16-15.9l-22.2-3.1L102.7,118.1z"/><path style="fill:#FFD700;" d="M143.3,77.1c10.3,5.8,18.2,14.2,22.8,22.9c4.7,8.9,6.8,18.1,6.8,25.5c0.1,15.2-12.3,27.5-27.5,27.5c-8.1,0-15.4-3.5-20.4-9.1l-2.8,2.3c-0.5-0.2-1-0.3-1.5-0.3c-1.2,0-2.4,0.5-3.2,1.5c-2,0.3-3.6,1.6-4.3,3.5c-2.1,4.2-5.8,7.5-10.2,9c0,0-0.1,0-0.1,0.1c-2.1,0.8-4.1,2.1-5.9,3.9c-3.5,3.5-5.2,8-4.2,11.1c-0.1,0.3-0.1,0.6-0.1,0.8c0,1.4,1.2,2.6,2.6,2.6c0.4,0,0.7-0.1,1.1-0.2c3.1,0.7,7.4-1,10.7-4.4c1.9-1.9,3.3-4.1,4-6.4c1.5-4.4,4.9-8,9.1-10c0.1,0,0.2-0.1,0.3-0.1c1.4-0.7,2.4-2,2.8-3.5c6.5,7.6,16.2,12.5,27,12.8c19.9,0.5,34.8-14.2,35.4-35.2c0.3-10.6-3.8-24.3-13.1-35.5C165.6,87.4,155.1,80.3,143.3,77.1L143.3,77.1z"/></g></svg>