<svg width="640" height="480" viewBox="0 0 640 480" fill="none" xmlns="http://www.w3.org/2000/svg">
<g clip-path="url(#clip0_2864_34844)">
<path fill-rule="evenodd" clip-rule="evenodd" d="M0 0H639.9V480H0V0Z" fill="#3B5AA3"/>
<path fill-rule="evenodd" clip-rule="evenodd" d="M0 467L639.9 0V87L0 480V467Z" fill="#E2AE57"/>
<path fill-rule="evenodd" clip-rule="evenodd" d="M22.4 479.999L640 179.199L639.9 83.6992L0 479.999H22.4ZM175.4 15.1992L169 117.999L142 52.3992L152.4 122.199L110.5 65.7992L138 130.099L83 87.4992L125.8 141.099L63.7 113.499L118.1 154.699L50.4 145.699L114.4 171.099L14 180.299L114.6 186.999L50.9 213.199L117.9 204.199L63.6 244.199L126.6 216.599L83.6 270.599L138.2 229.299L111.2 292.199L154.8 237.499L143 305.599L170.5 241.899L176.7 342.599L186.4 242.199L210.1 306.199L201.1 237.199L244.5 291.999L215.9 227.999L270.5 271.999L227.1 217.099L292 244.099L234.6 202.199L304.5 213.999L237.5 188.299L341.6 181.799L237.6 172.099L306.1 149.299L235.1 158.299L293.7 117.299L227.7 143.799L273.3 88.4992L217.7 131.899L244.4 65.4992L201.3 121.899L210.6 51.4992L184.9 117.999L175.3 15.1992H175.4Z" fill="white"/>
</g>
<defs>
<clipPath id="clip0_2864_34844">
<rect width="640" height="480" fill="white"/>
</clipPath>
</defs>
</svg>
