<svg width="640" height="480" viewBox="0 0 640 480" fill="none" xmlns="http://www.w3.org/2000/svg">
<g clip-path="url(#clip0_2864_35202)">
<path d="M0 0H640V480H0V0Z" fill="#CD2A3E"/>
<path d="M0 72H640V408H0V72Z" fill="#006233"/>
<path d="M470 154.6C470 194.382 454.197 232.535 426.066 260.666C397.936 288.796 359.783 304.6 320 304.6C280.218 304.6 242.065 288.796 213.934 260.666C185.804 232.535 170 194.382 170 154.6C166.668 167.399 164.987 180.573 165 193.8C165 234.908 181.33 274.333 210.399 303.401C239.467 332.469 278.892 348.8 320 348.8C361.109 348.8 400.533 332.469 429.602 303.401C458.67 274.333 475 234.908 475 193.8C475.024 180.572 473.343 167.397 470 154.6Z" fill="#FFC400"/>
<path d="M320 93.8008L306.5 135.301H263L298.3 160.901L284.8 202.301L320.1 176.701L355.4 202.301L341.9 160.901L377.2 135.301H333.6L320 93.8008Z" fill="#FFC400"/>
</g>
<defs>
<clipPath id="clip0_2864_35202">
<rect width="640" height="480" fill="white"/>
</clipPath>
</defs>
</svg>
