<svg width="640" height="480" viewBox="0 0 640 480" fill="none" xmlns="http://www.w3.org/2000/svg">
<g clip-path="url(#clip0_2864_35406)">
<path d="M0 0H640V480H0V0Z" fill="#D21034"/>
<path d="M120 120H520V360H120V120Z" fill="#007E3A"/>
<path d="M350 320C394.183 320 430 284.183 430 240C430 195.817 394.183 160 350 160C305.817 160 270 195.817 270 240C270 284.183 305.817 320 350 320Z" fill="white"/>
<path d="M380 320C424.183 320 460 284.183 460 240C460 195.817 424.183 160 380 160C335.817 160 300 195.817 300 240C300 284.183 335.817 320 380 320Z" fill="#007E3A"/>
</g>
<defs>
<clipPath id="clip0_2864_35406">
<rect width="640" height="480" fill="white"/>
</clipPath>
</defs>
</svg>
