<svg width="640" height="480" viewBox="0 0 640 480" fill="none" xmlns="http://www.w3.org/2000/svg">
<g clip-path="url(#clip0_2864_34595)">
<mask id="mask0_2864_34595" style="mask-type:luminance" maskUnits="userSpaceOnUse" x="0" y="0" width="640" height="480">
<path d="M0 0H640V480H0V0Z" fill="white"/>
</mask>
<g mask="url(#mask0_2864_34595)">
<path fill-rule="evenodd" clip-rule="evenodd" d="M0 0H640V480H0V0Z" fill="white"/>
<path fill-rule="evenodd" clip-rule="evenodd" d="M-26.4004 0.2L-25.6004 345.8L512.5 0L-26.4004 0.2Z" fill="#3662A2"/>
<path fill-rule="evenodd" clip-rule="evenodd" d="M666.399 479.601L664.999 120.301L122.299 479.801L666.299 479.601H666.399Z" fill="#38A100"/>
<path fill-rule="evenodd" clip-rule="evenodd" d="M-26 371.801L-25.6 480.001L91.9 479.901L665.4 95.4008L664.7 1.30078L548.7 0.300781L-26 371.701V371.801Z" fill="#C70000"/>
<path fill-rule="evenodd" clip-rule="evenodd" d="M219.599 172L197.799 158.8L185.199 180.9L172.999 158.7L150.999 171.6L151.599 146.2L126.199 146.4L139.399 124.6L117.299 112.1L139.499 99.8L126.699 77.8L152.099 78.4L151.999 52.9L173.699 66.1L186.299 44L198.499 66.2L220.499 53.3L219.899 78.7L245.299 78.5L232.099 100.3L254.199 112.8L231.999 125.1L244.799 147.1L219.399 146.5L219.599 172Z" fill="#FFE700"/>
<path fill-rule="evenodd" clip-rule="evenodd" d="M232.399 112.399C232.399 137.999 211.499 158.699 185.799 158.699C160.099 158.699 139.199 137.999 139.199 112.399C139.199 86.7992 159.999 66.1992 185.799 66.1992C211.599 66.1992 232.399 86.8992 232.399 112.399Z" fill="#3662A2"/>
<path fill-rule="evenodd" clip-rule="evenodd" d="M222.299 112.4C222.299 122.081 218.453 131.365 211.608 138.21C204.763 145.055 195.479 148.9 185.799 148.9C176.118 148.9 166.835 145.055 159.989 138.21C153.144 131.365 149.299 122.081 149.299 112.4C149.299 102.72 153.144 93.4361 159.989 86.591C166.835 79.7459 176.118 75.9004 185.799 75.9004C195.479 75.9004 204.763 79.7459 211.608 86.591C218.453 93.4361 222.299 102.72 222.299 112.4Z" fill="#FFE700"/>
</g>
</g>
<defs>
<clipPath id="clip0_2864_34595">
<rect width="640" height="480" fill="white"/>
</clipPath>
</defs>
</svg>
