<svg width="640" height="480" viewBox="0 0 640 480" fill="none" xmlns="http://www.w3.org/2000/svg">
<g clip-path="url(#clip0_2864_34678)">
<path d="M0 0H640V480H0V0Z" fill="#FEDD00"/>
<path d="M0 0H320V240H0V0Z" fill="#012169"/>
<path d="M37.5 0L159.5 90.5L281 0H320V31L200 120.5L320 209.5V240H280L160 150.5L40.5 240H0V210L119.5 121L0 32V0H37.5Z" fill="white"/>
<path d="M212 140.5L320 220V240L184.5 140.5H212ZM120 150.5L123 168L27 240H0L120 150.5ZM320 0V1.5L195.5 95.5L196.5 73.5L295 0H320ZM0 0L119.5 88H89.5L0 21V0Z" fill="#C8102E"/>
<path d="M120.5 0V240H200.5V0H120.5ZM0 80V160H320V80H0Z" fill="white"/>
<path d="M0 96.5V144.5H320V96.5H0ZM136.5 0V240H184.5V0H136.5Z" fill="#C8102E"/>
<path d="M160 160.799C182.533 160.799 200.8 142.532 200.8 119.999C200.8 97.466 182.533 79.1992 160 79.1992C137.467 79.1992 119.2 97.466 119.2 119.999C119.2 142.532 137.467 160.799 160 160.799Z" fill="#012169"/>
<path d="M160 79.2008L184 153.001L121.2 107.401H198.8L136 153.001M66.7004 98.3008L80.7004 141.701L43.9004 115.001H89.6004L52.6004 141.801M253.3 98.3008L267.4 141.701L230.5 114.901H276.2L239.2 141.701M160 178.301L174.1 221.701L137.1 194.901H182.8L145.8 221.701M160 18.3008L174.1 61.7008L137.1 34.9008H182.8L145.8 61.7008" fill="#FEDD00"/>
</g>
<defs>
<clipPath id="clip0_2864_34678">
<rect width="640" height="480" fill="white"/>
</clipPath>
</defs>
</svg>
