<svg width="640" height="480" viewBox="0 0 640 480" fill="none" xmlns="http://www.w3.org/2000/svg">
<g clip-path="url(#clip0_2864_34959)">
<mask id="mask0_2864_34959" style="mask-type:luminance" maskUnits="userSpaceOnUse" x="0" y="0" width="641" height="480">
<path d="M0.03125 0H640.063V480H0.03125V0Z" fill="white"/>
</mask>
<g mask="url(#mask0_2864_34959)">
<path fill-rule="evenodd" clip-rule="evenodd" d="M0.03125 0H720.031V480H0.03125V0Z" fill="#ED0000"/>
<path fill-rule="evenodd" clip-rule="evenodd" d="M0.03125 96H720.031V192H0.03125V96ZM0.03125 288H720.031V384H0.03125V288Z" fill="white"/>
<path fill-rule="evenodd" clip-rule="evenodd" d="M0.03125 0L413.187 239.719L0.03125 479.062V0Z" fill="#0050F0"/>
<path fill-rule="evenodd" clip-rule="evenodd" d="M181.625 305.156L137.188 271.875L92.9375 305.437L109.438 250.969L65.1875 217.219L119.844 216.844L136.812 162.469L154.156 216.656L208.812 216.75L164.844 250.781L181.625 305.156Z" fill="white"/>
</g>
</g>
<defs>
<clipPath id="clip0_2864_34959">
<rect width="640" height="480" fill="white"/>
</clipPath>
</defs>
</svg>
