<svg width="640" height="480" viewBox="0 0 640 480" fill="none" xmlns="http://www.w3.org/2000/svg">
<g clip-path="url(#clip0_2864_35244)">
<mask id="mask0_2864_35244" style="mask-type:luminance" maskUnits="userSpaceOnUse" x="0" y="0" width="640" height="480">
<path d="M0 0H640V480H0V0Z" fill="white"/>
</mask>
<g mask="url(#mask0_2864_35244)">
<path fill-rule="evenodd" clip-rule="evenodd" d="M-103.1 0H743.2V480H-103.1V0Z" fill="#4AADD6"/>
<path fill-rule="evenodd" clip-rule="evenodd" d="M405.9 232.1C406.393 249.475 403.243 266.769 396.638 282.96C390.032 299.151 380.104 313.91 367.441 326.367C354.777 338.823 339.635 348.724 322.907 355.485C306.18 362.245 288.207 365.728 270.05 365.728C251.894 365.728 233.921 362.245 217.193 355.485C200.466 348.724 185.324 338.823 172.66 326.367C159.997 313.91 150.069 299.151 143.463 282.96C136.857 266.769 133.708 249.475 134.2 232.1C133.708 214.724 136.857 197.43 143.463 181.239C150.069 165.048 159.997 150.289 172.66 137.832C185.324 125.376 200.466 115.475 217.193 108.714C233.921 101.954 251.894 98.4707 270.05 98.4707C288.207 98.4707 306.18 101.954 322.907 108.714C339.635 115.475 354.777 125.376 367.441 137.832C380.104 150.289 390.032 165.048 396.638 181.239C403.243 197.43 406.393 214.724 405.9 232.1Z" fill="#FFDE00"/>
</g>
</g>
<defs>
<clipPath id="clip0_2864_35244">
<rect width="640" height="480" fill="white"/>
</clipPath>
</defs>
</svg>
