<svg width="640" height="480" viewBox="0 0 640 480" fill="none" xmlns="http://www.w3.org/2000/svg">
<g clip-path="url(#clip0_2864_34812)">
<path d="M0 0H640V480H0V0Z" fill="#20603D"/>
<path d="M0 0H640V360H0V0Z" fill="#FAD201"/>
<path d="M0 0H640V240H0V0Z" fill="#00A1DE"/>
<path d="M588.4 125.401L534.8 128.534L585.733 145.468L533.2 134.601L578.067 164.068L530.066 139.934L565.667 180.135L525.6 144.468L549.733 192.468L520.2 147.601L531 200.068L514.133 149.201L511 202.801L510.333 124.734L588.4 125.401Z" fill="#E5BE01"/>
<path d="M588.4 125.402L534.8 122.268L585.733 105.335L533.2 116.202L578.067 86.7348L530.066 110.868L565.667 70.6681L525.6 106.335L549.733 58.3347L520.2 103.202L531 50.7347L514.133 101.602L511 48.0013L510.333 126.068L588.4 125.402Z" fill="#E5BE01"/>
<path d="M433.599 125.401L487.199 128.534L436.266 145.468L488.799 134.601L443.932 164.068L491.933 139.934L456.332 180.135L496.399 144.468L472.266 192.468L501.799 147.601L490.999 200.068L507.866 149.201L510.999 202.801L511.666 124.734L433.599 125.401Z" fill="#E5BE01"/>
<path d="M433.599 125.402L487.199 122.268L436.266 105.335L488.799 116.202L443.932 86.7348L491.933 110.868L456.332 70.6681L496.399 106.335L472.266 58.3347L501.799 103.202L490.999 50.7347L507.866 101.602L510.999 48.0013L511.666 126.068L433.599 125.402Z" fill="#E5BE01"/>
<path d="M511 148.267C523.629 148.267 533.866 138.029 533.866 125.4C533.866 112.771 523.629 102.533 511 102.533C498.371 102.533 488.133 112.771 488.133 125.4C488.133 138.029 498.371 148.267 511 148.267Z" fill="#E5BE01" stroke="#00A1DE" stroke-width="2.26668"/>
</g>
<defs>
<clipPath id="clip0_2864_34812">
<rect width="640" height="480" fill="white"/>
</clipPath>
</defs>
</svg>
