<svg width="640" height="480" viewBox="0 0 640 480" fill="none" xmlns="http://www.w3.org/2000/svg">
<g clip-path="url(#clip0_2864_34655)">
<mask id="mask0_2864_34655" style="mask-type:luminance" maskUnits="userSpaceOnUse" x="0" y="0" width="640" height="480">
<path d="M0 0H640V480H0V0Z" fill="white"/>
</mask>
<g mask="url(#mask0_2864_34655)">
<path fill-rule="evenodd" clip-rule="evenodd" d="M-20 0H700V480H-20V0Z" fill="white"/>
<path fill-rule="evenodd" clip-rule="evenodd" d="M-20 0H700V240H-20V0Z" fill="#DF0000"/>
<path fill-rule="evenodd" clip-rule="evenodd" d="M146 40.2001C127.058 44.2708 110.093 54.7345 97.9536 69.8343C85.8143 84.9342 79.2397 103.751 79.3335 123.125C79.4273 142.499 86.1839 161.251 98.4688 176.233C110.754 191.214 127.819 201.513 146.8 205.4C135.926 208.546 124.539 209.515 113.29 208.251C102.042 206.987 91.1532 203.515 81.2495 198.033C71.3458 192.552 62.6217 185.169 55.5774 176.309C48.5331 167.448 43.3072 157.285 40.1995 146.4C34.0272 124.521 36.7688 101.088 47.8249 81.2246C58.8809 61.3612 77.352 46.6833 99.1995 40.4001C115.2 35.8001 130 35.7001 146.1 40.2001H146Z" fill="white"/>
<path fill-rule="evenodd" clip-rule="evenodd" d="M133 109.999L137.9 124.999L124.9 115.799L112.1 125.199L116.8 109.999L104 100.699L119.9 100.499L124.9 85.4992L129.9 100.499H145.7L133 109.999ZM150.5 161.999L155.5 177.099L142.5 167.899L129.6 177.199L134.4 162.099L121.6 152.699L137.5 152.599L142.4 137.499L147.4 152.499H163.4L150.5 161.999ZM209 161.599L213.9 176.799L200.9 167.499L188.1 176.799L192.8 161.699L180 152.399L195.9 152.199L200.9 137.199L205.9 152.199H221.7L209 161.599ZM226.4 109.999L231.3 125.099L218.3 115.899L205.5 125.199L210.3 110.099L197.4 100.699L213.4 100.599L218.2 85.4992L223.2 100.499H239.2L226.4 109.999ZM180.1 75.6992L185.1 90.8992L172.1 81.5992L159.2 90.9992L164 75.7992L151.2 66.3992L167 66.2992L172 51.1992L177 66.1992H193L180.1 75.6992Z" fill="white"/>
</g>
</g>
<defs>
<clipPath id="clip0_2864_34655">
<rect width="640" height="480" fill="white"/>
</clipPath>
</defs>
</svg>
