<svg width="640" height="480" viewBox="0 0 640 480" fill="none" xmlns="http://www.w3.org/2000/svg">
<g clip-path="url(#clip0_2864_34607)">
<path d="M0 0H640V480H0V0Z" fill="#12AD2B"/>
<path d="M0 137.1H640V343H0V137.1Z" fill="#FFCE00"/>
<path d="M0 0V480L240 240" fill="#D21034"/>
<path d="M351.6 171.428L330.41 236.644L363.018 247.239" fill="#000001"/>
<path d="M351.6 171.428L372.79 236.644L340.182 247.239" fill="#000001"/>
<path d="M416.815 218.809H348.243V253.095" fill="#000001"/>
<path d="M416.815 218.809L361.34 259.114L341.187 231.376" fill="#000001"/>
<path d="M391.905 295.475L370.715 230.259L338.107 240.854" fill="#000001"/>
<path d="M391.905 295.475L336.429 255.169L356.582 227.431" fill="#000001"/>
<path d="M311.294 295.477L366.77 255.171L346.617 227.433" fill="#000001"/>
<path d="M311.294 295.477L332.484 230.261L365.092 240.856" fill="#000001"/>
<path d="M286.384 218.811L341.86 259.116L362.013 231.378" fill="#000001"/>
<path d="M286.384 218.811H354.956V253.097" fill="#000001"/>
<path d="M528.399 171.428L507.21 236.644L539.817 247.239" fill="#000001"/>
<path d="M528.399 171.428L549.589 236.644L516.981 247.239" fill="#000001"/>
<path d="M593.615 218.809H525.043V253.095" fill="#000001"/>
<path d="M593.615 218.809L538.139 259.114L517.987 231.376" fill="#000001"/>
<path d="M568.705 295.475L547.515 230.259L514.907 240.854" fill="#000001"/>
<path d="M568.705 295.475L513.229 255.169L533.382 227.431" fill="#000001"/>
<path d="M488.094 295.477L543.57 255.171L523.417 227.433" fill="#000001"/>
<path d="M488.094 295.477L509.284 230.261L541.892 240.856" fill="#000001"/>
<path d="M463.184 218.811L518.66 259.116L538.812 231.378" fill="#000001"/>
<path d="M463.184 218.811H531.756V253.097" fill="#000001"/>
</g>
<defs>
<clipPath id="clip0_2864_34607">
<rect width="640" height="480" fill="white"/>
</clipPath>
</defs>
</svg>
