<svg width="640" height="480" viewBox="0 0 640 480" fill="none" xmlns="http://www.w3.org/2000/svg">
<g clip-path="url(#clip0_2864_35288)">
<path d="M0 0H640V480H0V0Z" fill="#E70013"/>
<path d="M320 119.2C288.134 119.068 257.521 131.599 234.894 154.038C212.268 176.477 199.482 206.985 199.35 238.85C199.217 270.716 211.749 301.329 234.187 323.956C256.626 346.582 287.134 359.368 319 359.5C350.865 359.633 381.479 347.101 404.105 324.663C426.731 302.224 439.517 271.716 439.65 239.85C439.782 207.985 427.251 177.371 404.812 154.745C382.373 132.119 351.865 119.333 320 119.2ZM392 293C380.739 308.233 364.96 319.524 346.908 325.266C328.857 331.008 309.454 330.908 291.463 324.98C273.472 319.052 257.809 307.598 246.707 292.251C235.604 276.903 229.627 258.443 229.627 239.5C229.627 220.558 235.604 202.098 246.707 186.75C257.809 171.402 273.472 159.949 291.463 154.021C309.454 148.093 328.857 147.993 346.908 153.735C364.96 159.477 380.739 170.768 392 186C381.656 176.684 368.834 170.567 355.086 168.388C341.337 166.209 327.252 168.062 314.534 173.723C301.817 179.384 291.014 188.61 283.432 200.284C275.85 211.958 271.815 225.58 271.815 239.5C271.815 253.42 275.85 267.042 283.432 278.716C291.014 290.39 301.817 299.616 314.534 305.277C327.252 310.938 341.337 312.792 355.086 310.613C368.834 308.434 381.656 302.316 392 293ZM387.3 271.3L349.9 259.2L326.8 291V251.7L289.4 239.5L326.8 227.3V188L349.9 219.8L387.3 207.7L364.2 239.5L387.3 271.3Z" fill="white"/>
</g>
<defs>
<clipPath id="clip0_2864_35288">
<rect width="640" height="480" fill="white"/>
</clipPath>
</defs>
</svg>
